<svg width="28" height="28" viewBox="0 0 28 28" fill="none" xmlns="http://www.w3.org/2000/svg">
<rect x="0.311111" y="0.311111" width="27.3778" height="27.3778" rx="7.15556" fill="#0D0D0D"/>
<rect x="0.311111" y="0.311111" width="27.3778" height="27.3778" rx="7.15556" stroke="white" stroke-width="0.622222"/>
<path fill-rule="evenodd" clip-rule="evenodd" d="M17.1262 4.34207C17.2024 4.37822 17.2776 4.41607 17.3521 4.45505H17.3527C19.2661 5.36571 20.5332 7.10567 20.5332 9.14447C20.5332 11.7154 18.9341 13.1113 17.3877 14.4612L17.3866 14.4621C16.6336 15.1191 15.9218 15.7405 15.3986 16.4845C14.8637 17.246 14.8168 17.607 14.8168 19.108V19.447H12.5096L11.3786 18.8815V17.237C11.3786 15.2568 12.5272 13.9617 13.6379 12.7092L13.6395 12.7074C14.8077 11.3906 15.911 10.1466 15.911 8.09993C15.911 7.12205 15.5981 6.36392 15.0145 5.86453C14.6897 5.78149 14.3298 5.73856 13.936 5.73856C13.0904 5.73856 12.4045 5.99785 11.9018 6.28879C12.4379 6.70062 12.7181 7.27571 12.7181 7.97678C12.7181 9.12583 11.8001 9.99242 10.5832 9.99242C10.2217 9.99242 9.8799 9.90034 9.58501 9.72748C9.50705 9.69471 9.43192 9.65686 9.35904 9.61449C9.28108 9.58229 9.20595 9.54388 9.13308 9.50151C9.05512 9.46874 8.97998 9.43089 8.90711 9.38852C8.82915 9.35576 8.75401 9.31791 8.68114 9.27554C8.44669 9.17724 8.23372 9.03375 8.05464 8.84902C7.66993 8.45244 7.46655 7.90334 7.46655 7.26159C7.46655 6.22778 8.05407 5.19736 9.07884 4.43471C10.1403 3.64495 11.5735 3.20996 13.1141 3.20996C14.3473 3.20996 15.4873 3.4992 16.4483 4.00311C16.5245 4.03927 16.5997 4.07712 16.6742 4.1161C16.7505 4.15225 16.8256 4.1901 16.9002 4.22908C16.9765 4.26524 17.0516 4.30309 17.1262 4.34207ZM13.7491 20.4034C13.8282 20.4373 14.5818 20.8141 14.6535 20.8559H14.6541C15.449 21.1915 15.8608 21.9824 15.8608 22.7665C15.8608 23.2551 15.6721 23.7483 15.3439 24.1189C15.0721 24.4251 14.5812 24.79 13.7819 24.79C13.3254 24.79 12.9695 24.6708 12.6978 24.5115C12.617 24.4771 11.8628 24.0997 11.7933 24.059C11.4753 23.9251 11.2459 23.7297 11.09 23.5534C10.7618 23.1828 10.5737 22.6897 10.5737 22.201C10.5737 21.6796 10.7612 21.1661 11.0889 20.7921C11.3561 20.4865 11.8447 20.1226 12.6515 20.1226C13.0831 20.1226 13.4497 20.2277 13.7491 20.4034ZM10.912 22.2009C10.912 21.3586 11.4826 20.4615 12.6514 20.4615C13.8202 20.4615 14.3908 21.3586 14.3908 22.2009C14.3908 22.9619 13.8202 23.8861 12.6514 23.8861C11.4826 23.8861 10.912 22.9619 10.912 22.2009ZM7.80551 7.26156C7.80551 5.39901 9.97086 3.54889 13.1135 3.54889C16.3805 3.54889 19.0633 5.69729 19.0633 8.57896C19.0633 10.9964 17.5369 12.3287 16.033 13.6412C15.2825 14.2963 14.5376 14.9464 13.9909 15.7241C13.3881 16.5811 13.3468 17.0449 13.3468 18.5425H11.7176V17.237C11.7176 15.3847 12.7908 14.1748 13.8928 12.9325C15.0554 11.6218 16.25 10.2751 16.25 8.0999C16.25 6.18369 15.1111 4.83409 12.8056 4.83409C11.6379 4.83409 10.7397 5.28546 10.1409 5.73457C10.8894 6.09386 11.2487 6.66274 11.2487 7.41126C11.2487 8.36937 10.5008 9.08795 9.45283 9.08795C8.56985 9.08795 7.80551 8.42925 7.80551 7.26156Z" fill="white"/>
<path d="M12.6513 20.4615C11.4825 20.4615 10.9119 21.3586 10.9119 22.2009C10.9119 22.9618 11.4825 23.886 12.6513 23.886C13.8202 23.886 14.3907 22.9618 14.3907 22.2009C14.3907 21.3586 13.8202 20.4615 12.6513 20.4615ZM13.1134 3.54883C9.97077 3.54883 7.80542 5.39895 7.80542 7.2615C7.80542 8.4292 8.56976 9.0879 9.45273 9.0879C10.5007 9.0879 11.2486 8.36931 11.2486 7.41121C11.2486 6.66268 10.8893 6.0938 10.1408 5.73451C10.7396 5.2854 11.6379 4.83403 12.8056 4.83403C15.111 4.83403 16.2499 6.18363 16.2499 8.09985C16.2499 12.3368 11.7175 13.4305 11.7175 17.2369V18.5424H13.3467C13.3467 17.0448 13.388 16.581 13.9908 15.724C15.633 13.3881 19.0632 12.2029 19.0632 8.5789C19.0632 5.69723 16.3804 3.54883 13.1134 3.54883Z" fill="#0D0D0D"/>
</svg>
