<svg width="26" height="26" viewBox="0 0 26 26" fill="none" xmlns="http://www.w3.org/2000/svg">
<rect width="26" height="26" />
<path fill-rule="evenodd" clip-rule="evenodd" d="M16 6C16 4.89543 16.8954 4 18 4H22C23.1046 4 24 4.89543 24 6V21C24 22.1046 23.1046 23 22 23H16H9H4C2.89543 23 2 22.1046 2 21V14C2 12.8954 2.89543 12 4 12H9V10C9 8.89543 9.89543 8 11 8H16V6ZM8 17C8 16.4477 8.44772 16 9 16C9.55228 16 10 16.4477 10 17V19C10 19.5523 9.55228 20 9 20C8.44772 20 8 19.5523 8 19V17ZM16 13C15.4477 13 15 13.4477 15 14V19C15 19.5523 15.4477 20 16 20C16.5523 20 17 19.5523 17 19V14C17 13.4477 16.5523 13 16 13Z" fill="currentColor"/>
</svg>
