<svg width="20" height="20" viewBox="0 0 20 20" fill="none" xmlns="http://www.w3.org/2000/svg">
<g clip-path="url(#clip0_718_711)">
<path d="M5.83333 10.8334V4.16675C5.83333 3.94573 5.74554 3.73377 5.58926 3.57749C5.43298 3.42121 5.22101 3.33341 5 3.33341H3.33333C3.11232 3.33341 2.90036 3.42121 2.74408 3.57749C2.5878 3.73377 2.5 3.94573 2.5 4.16675V10.0001C2.5 10.2211 2.5878 10.4331 2.74408 10.5893C2.90036 10.7456 3.11232 10.8334 3.33333 10.8334H5.83333ZM5.83333 10.8334C6.71739 10.8334 7.56524 11.1846 8.19036 11.8097C8.81548 12.4348 9.16667 13.2827 9.16667 14.1667V15.0001C9.16667 15.4421 9.34226 15.866 9.65482 16.1786C9.96738 16.4912 10.3913 16.6667 10.8333 16.6667C11.2754 16.6667 11.6993 16.4912 12.0118 16.1786C12.3244 15.866 12.5 15.4421 12.5 15.0001V10.8334H15C15.442 10.8334 15.866 10.6578 16.1785 10.3453C16.4911 10.0327 16.6667 9.60878 16.6667 9.16675L15.8333 5.00008C15.7135 4.48885 15.4861 4.04988 15.1855 3.74928C14.8849 3.44868 14.5274 3.30273 14.1667 3.33341H8.33333C7.67029 3.33341 7.03441 3.59681 6.56557 4.06565C6.09673 4.53449 5.83333 5.17037 5.83333 5.83341" stroke="#5E5E5E" stroke-linecap="round" stroke-linejoin="round"/>
</g>
<defs>
<clipPath id="clip0_718_711">
<rect width="20" height="20" fill="white" transform="matrix(1 0 0 -1 0 20)"/>
</clipPath>
</defs>
</svg>
