<svg width="26" height="26" viewBox="0 0 26 26" fill="none" xmlns="http://www.w3.org/2000/svg">
<rect width="26" height="26" />
<path fill-rule="evenodd" clip-rule="evenodd" d="M4.27651 4.26087C4.88062 3.667 5.69997 3.33337 6.55432 3.33337H17.5746C18.1367 3.33337 18.6757 3.55287 19.0732 3.94357C19.4706 4.33427 19.6939 4.86418 19.6939 5.41671V7.66671H19.7787C20.3407 7.66671 20.8798 7.8862 21.2772 8.2769C21.6747 8.6676 21.8979 9.19751 21.8979 9.75004V11H21.9412C22.5259 11 23 11.4948 23 12.1053V17.5C23 18.1104 22.5259 18.6053 21.9412 18.6053H21.8979V20.5834C21.8979 21.1359 21.6747 21.6658 21.2772 22.0565C20.8798 22.4472 20.3407 22.6667 19.7787 22.6667H6.55432C5.69997 22.6667 4.88062 22.3331 4.27651 21.7392C3.67239 21.1453 3.33301 20.3399 3.33301 19.5V6.50004C3.33301 5.66019 3.67239 4.85473 4.27651 4.26087ZM5.36752 6.50004C5.36752 6.80946 5.49256 7.10621 5.71513 7.325C5.93769 7.54379 6.23956 7.66671 6.55432 7.66671H17.6594V5.41671C17.6594 5.3946 17.6504 5.37341 17.6345 5.35778C17.6186 5.34215 17.5971 5.33337 17.5746 5.33337H6.55432C6.23956 5.33337 5.93769 5.45629 5.71513 5.67508C5.49256 5.89388 5.36752 6.19062 5.36752 6.50004ZM18 13C16.8954 13 16 13.8954 16 15C16 16.1046 16.8954 17 18 17H21V13H18Z" fill="currentColor"/>
</svg>
