<svg width="26" height="26" viewBox="0 0 26 26" fill="none" xmlns="http://www.w3.org/2000/svg">
<rect width="26" height="26" />
<path fill-rule="evenodd" clip-rule="evenodd" d="M12.5755 1C9.39971 1 6.64733 3.21366 6.32748 6.42847L5.77642 12.281C5.5957 14.0919 4.81388 15.9201 3.57923 17.2317C2.90456 17.9484 2.8987 18.9413 3.16046 19.6522C3.42299 20.3652 4.09648 21.15 5.15584 21.15H9.55299C9.86244 22.9945 11.4666 24.4 13.3991 24.4C15.3315 24.4 16.9357 22.9945 17.2451 21.15H21.6423C22.7016 21.15 23.3751 20.3652 23.6377 19.6522C23.8994 18.9413 23.8936 17.9484 23.2189 17.2317C21.9843 15.9201 21.2024 14.092 21.0217 12.2811L21.0214 12.2785L20.4711 6.4336L20.4706 6.42847C20.1508 3.21366 17.3984 1 14.2227 1H12.5755ZM12.75 20C12.3358 20 12 20.3358 12 20.75C12 21.1642 12.3358 21.5 12.75 21.5H14.25C14.6642 21.5 15 21.1642 15 20.75C15 20.3358 14.6642 20 14.25 20H12.75Z" fill="currentColor"/>
</svg>
