<?xml version="1.0" encoding="utf-8"?>
<svg width="25" height="25" viewBox="0 0 25 25" fill="none" xmlns="http://www.w3.org/2000/svg">
  <g id="Group 48096792" style="" transform="matrix(0.794964, 0, 0, 0.794964, 2.843814, 2.222322)">
    <path id="Subtract" fill-rule="evenodd" clip-rule="evenodd" d="M2.66072 11.9259C1.65798 11.4222 -0.632726 9.62294 0.165893 6.42847C0.540799 5.67855 1.00365 4.60644 1.44113 3.59309L1.44114 3.59308L1.44114 3.59308L1.44114 3.59307C1.79989 2.76211 2.14157 1.97068 2.4037 1.42882C2.55667 1.11262 2.88094 0.928467 3.23221 0.928467H20.6118C20.9566 0.928467 21.2761 1.10457 21.4559 1.39877C22.1291 2.50038 23.7712 5.24393 24.166 6.42847C24.6647 7.92464 23.6709 10.9132 21.6811 11.9208C20.4291 11.8601 19.3876 11.4457 18.6597 10.8858C17.8585 10.2695 17.5 9.53692 17.5 8.92847H15.5C15.5 10.0915 15.0465 10.6392 14.5384 10.9518C13.9544 11.3112 13.171 11.4285 12.5 11.4285C11.7137 11.4285 10.8148 11.4135 10.1104 11.0848C9.78555 10.9332 9.52732 10.7242 9.34245 10.4255C9.15556 10.1236 9 9.65937 9 8.92847H7C7 10.1651 6.3126 10.876 5.32797 11.3344C4.38711 11.7724 3.2895 11.9064 2.66072 11.9259ZM21.6658 13.922V22.8416H23.1225C23.6988 22.8416 24.166 23.3087 24.166 23.885C24.166 24.4613 23.6988 24.9285 23.1225 24.9285H1.20949C0.633197 24.9285 0.166016 24.4613 0.166016 23.885C0.166016 23.3087 0.633197 22.8416 1.20949 22.8416H2.66578L2.66589 13.9264C3.45827 13.9075 4.87862 13.7497 6.17203 13.1475C6.80238 12.8541 7.42573 12.4401 7.92611 11.8754C8.31086 12.3428 8.77922 12.6706 9.26461 12.8972C10.4055 13.4295 11.7177 13.4289 12.4444 13.4285L12.5 13.4285C13.329 13.4285 14.5456 13.2957 15.5866 12.6551C15.9838 12.4107 16.3405 12.1011 16.6353 11.721C16.8753 11.9933 17.1461 12.2448 17.4403 12.4711C18.5293 13.3088 19.9979 13.8571 21.6658 13.922ZM10.949 17.5525C10.58 17.5525 10.2261 17.6991 9.96516 17.96C9.70424 18.221 9.55766 18.5748 9.55766 18.9438V22.9285H7.4707V18.9438C7.4707 18.0213 7.83716 17.1366 8.48946 16.4843C9.14176 15.832 10.0265 15.4656 10.949 15.4656H13.3837C14.3062 15.4656 15.1909 15.832 15.8432 16.4843C16.4955 17.1366 16.862 18.0213 16.862 18.9438V22.9285H14.7751V18.9438C14.7751 18.5748 14.6285 18.221 14.3675 17.96C14.1066 17.6991 13.7527 17.5525 13.3837 17.5525H10.949Z" fill="currentColor"/>
  </g>
</svg>
