<?xml version="1.0" encoding="utf-8"?>
<svg width="24" height="24" viewBox="0 0 24 24" fill="none" xmlns="http://www.w3.org/2000/svg">
  <g id="Group 48096792" style="" transform="matrix(0.767248, 0, 0, 0.767248, 2.793024, 2.793024)">
    <path id="Vector (Stroke)" fill-rule="evenodd" clip-rule="evenodd" d="M0 22.9566C0 22.3803 0.467181 21.9131 1.04348 21.9131H22.9565C23.5328 21.9131 24 22.3803 24 22.9566C24 23.5329 23.5328 24 22.9565 24H1.04348C0.467181 24 0 23.5329 0 22.9566Z" fill="currentColor"/>
    <path id="Vector (Stroke)_2" fill-rule="evenodd" clip-rule="evenodd" d="M2.54495 0.576821C2.7217 0.223307 3.08302 0 3.47826 0H20.5217C20.917 0 21.2783 0.223307 21.4551 0.576821L23.8898 5.44639C23.9623 5.59128 24 5.75105 24 5.91304V7.13044C24 8.3758 23.5053 9.57016 22.6247 10.4508C21.7441 11.3314 20.5497 11.8261 19.3043 11.8261C18.059 11.8261 16.8646 11.3314 15.984 10.4508C15.8664 10.3332 15.7557 10.21 15.6522 10.0819C15.5486 10.21 15.4379 10.3332 15.3203 10.4508C14.4397 11.3314 13.2454 11.8261 12 11.8261C10.7546 11.8261 9.56028 11.3314 8.67967 10.4508C8.56209 10.3332 8.45139 10.21 8.34783 10.0819C8.24426 10.21 8.13356 10.3332 8.01598 10.4508C7.13537 11.3314 5.94102 11.8261 4.69565 11.8261C3.45029 11.8261 2.25593 11.3314 1.37532 10.4508C0.494719 9.57016 0 8.3758 0 7.13044V5.91304C0 5.75105 0.0377166 5.59128 0.110163 5.44639L2.54495 0.576821ZM9.3913 7.13044C9.3913 7.8223 9.66615 8.48584 10.1554 8.97506C10.6446 9.46429 11.3081 9.73913 12 9.73913C12.6919 9.73913 13.3554 9.46429 13.8446 8.97506C14.3339 8.48584 14.6087 7.8223 14.6087 7.13044V6.95652H9.3913V7.13044ZM7.30435 6.95652H2.08696V7.13044C2.08696 7.8223 2.3618 8.48584 2.85103 8.97506C3.34025 9.46429 4.00378 9.73913 4.69565 9.73913C5.38752 9.73913 6.05105 9.46429 6.54028 8.97506C7.0295 8.48584 7.30435 7.8223 7.30435 7.13044V6.95652ZM2.73186 4.86957H21.2681L19.8768 2.08696H4.12317L2.73186 4.86957ZM21.913 6.95652H16.6957V7.13044C16.6957 7.8223 16.9705 8.48584 17.4597 8.97506C17.9489 9.46429 18.6125 9.73913 19.3043 9.73913C19.9962 9.73913 20.6597 9.46429 21.149 8.97506C21.6382 8.48584 21.913 7.8223 21.913 7.13044V6.95652Z" fill="currentColor"/>
    <path id="Vector (Stroke)_3" fill-rule="evenodd" clip-rule="evenodd" d="M3.47903 9.55615C4.05532 9.55615 4.5225 10.0233 4.5225 10.5996V22.9562C4.5225 23.5324 4.05532 23.9996 3.47903 23.9996C2.90273 23.9996 2.43555 23.5324 2.43555 22.9562V10.5996C2.43555 10.0233 2.90273 9.55615 3.47903 9.55615Z" fill="currentColor"/>
    <path id="Vector (Stroke)_4" fill-rule="evenodd" clip-rule="evenodd" d="M20.522 9.55615C21.0983 9.55615 21.5655 10.0233 21.5655 10.5996V22.9562C21.5655 23.5324 21.0983 23.9996 20.522 23.9996C19.9457 23.9996 19.4785 23.5324 19.4785 22.9562V10.5996C19.4785 10.0233 19.9457 9.55615 20.522 9.55615Z" fill="currentColor"/>
    <path id="Vector (Stroke)_5" fill-rule="evenodd" clip-rule="evenodd" d="M10.7829 16.6956C10.414 16.6956 10.0601 16.8422 9.79915 17.1031C9.53823 17.364 9.39164 17.7179 9.39164 18.0869V22.9565C9.39164 23.5328 8.92446 23.9999 8.34817 23.9999C7.77187 23.9999 7.30469 23.5328 7.30469 22.9565V18.0869C7.30469 17.1644 7.67115 16.2797 8.32345 15.6274C8.97575 14.9751 9.86046 14.6086 10.7829 14.6086H13.2177C14.1402 14.6086 15.0249 14.9751 15.6772 15.6274C16.3295 16.2797 16.696 17.1644 16.696 18.0869V22.9565C16.696 23.5328 16.2288 23.9999 15.6525 23.9999C15.0762 23.9999 14.609 23.5328 14.609 22.9565V18.0869C14.609 17.7179 14.4625 17.364 14.2015 17.1031C13.9406 16.8422 13.5867 16.6956 13.2177 16.6956H10.7829Z" fill="currentColor"/>
  </g>
</svg>
