<svg width="24" height="24" viewBox="0 0 24 24" fill="none" xmlns="http://www.w3.org/2000/svg">
<g clip-path="url(#clip0_1049_1068)">
<path d="M15 8H15.01" stroke="black" stroke-width="1.5" stroke-linecap="round" stroke-linejoin="round"/>
<path d="M4 6.66667C4 5.95942 4.28095 5.28115 4.78105 4.78105C5.28115 4.28095 5.95942 4 6.66667 4H17.3333C18.0406 4 18.7189 4.28095 19.219 4.78105C19.719 5.28115 20 5.95942 20 6.66667V17.3333C20 18.0406 19.719 18.7189 19.219 19.219C18.7189 19.719 18.0406 20 17.3333 20H6.66667C5.95942 20 5.28115 19.719 4.78105 19.219C4.28095 18.7189 4 18.0406 4 17.3333V6.66667Z" stroke="black" stroke-width="1.33333" stroke-linecap="round" stroke-linejoin="round"/>
<path d="M4 15.5554L8.44444 11.111C9.26933 10.3172 10.2862 10.3172 11.1111 11.111L15.5556 15.5554" stroke="black" stroke-width="1.33333" stroke-linecap="round" stroke-linejoin="round"/>
<path d="M13.7778 13.7777L14.6667 12.8888C15.4916 12.095 16.5085 12.095 17.3334 12.8888L20.0001 15.5555" stroke="black" stroke-width="1.33333" stroke-linecap="round" stroke-linejoin="round"/>
</g>
<defs>
<clipPath id="clip0_1049_1068">
<rect width="24" height="24" fill="white"/>
</clipPath>
</defs>
</svg>
