<svg width="32" height="33" viewBox="0 0 32 33" fill="none" xmlns="http://www.w3.org/2000/svg">
<g clip-path="url(#clip0_683_9975)">
<path d="M5 24.2891V7.78906C5 7.05972 5.28973 6.36024 5.80546 5.84452C6.32118 5.32879 7.02065 5.03906 7.75 5.03906H24.25C24.9793 5.03906 25.6788 5.32879 26.1945 5.84452C26.7103 6.36024 27 7.05972 27 7.78906V24.2891C27 25.0184 26.7103 25.7179 26.1945 26.2336C25.6788 26.7493 24.9793 27.0391 24.25 27.0391H7.75C7.02065 27.0391 6.32118 26.7493 5.80546 26.2336C5.28973 25.7179 5 25.0184 5 24.2891Z" stroke="white" stroke-width="2.5" stroke-linecap="round" stroke-linejoin="round"/>
<path d="M9.33331 18.7058L13.3333 14.7058L16 17.3724L20 13.3724L22.6666 16.0391" stroke="white" stroke-width="2.5" stroke-linecap="round" stroke-linejoin="round"/>
</g>
<defs>
<clipPath id="clip0_683_9975">
<rect width="32" height="32" fill="white" transform="translate(0 0.0390625)"/>
</clipPath>
</defs>
</svg>
