<svg width="26" height="26" viewBox="0 0 26 26" fill="none" xmlns="http://www.w3.org/2000/svg">
<rect width="26" height="26" />
<path d="M9.75 20.5833V14.0833C9.75 13.485 9.26498 13 8.66667 13H4.33333C3.73502 13 3.25 13.485 3.25 14.0833V20.5833C3.25 21.1816 3.73502 21.6666 4.33333 21.6666M9.75 20.5833C9.75 21.1816 9.26498 21.6666 8.66667 21.6666H4.33333M9.75 20.5833C9.75 21.1816 10.235 21.6666 10.8333 21.6666H15.1667C15.765 21.6666 16.25 21.1816 16.25 20.5833M9.75 20.5833V9.74998C9.75 9.15167 10.235 8.66665 10.8333 8.66665H15.1667C15.765 8.66665 16.25 9.15167 16.25 9.74998V20.5833M4.33333 21.6666H19.5M16.25 20.5833C16.25 21.1816 16.735 21.6666 17.3333 21.6666H21.6667C22.265 21.6666 22.75 21.1816 22.75 20.5833V5.41665C22.75 4.81834 22.265 4.33331 21.6667 4.33331H17.3333C16.735 4.33331 16.25 4.81834 16.25 5.41665V20.5833Z" stroke="black" stroke-width="2" stroke-linecap="round" stroke-linejoin="round"/>
</svg>
