<svg width="26" height="26" viewBox="0 0 26 26" fill="none" xmlns="http://www.w3.org/2000/svg">
<rect width="26" height="26" />
<path fill-rule="evenodd" clip-rule="evenodd" d="M5.92856 6.72846C6.2484 3.51364 9.00078 1.29999 12.1765 1.29999H13.8237C16.9995 1.29999 19.7519 3.51364 20.0717 6.72846L20.0722 6.73359L20.6225 12.5785C20.6226 12.5793 20.6227 12.5802 20.6228 12.5811C20.8035 14.392 21.5853 16.2201 22.82 17.5317C23.4946 18.2484 23.5005 19.2413 23.2387 19.9522C22.9762 20.6652 22.3027 21.45 21.2433 21.45H16.8462C16.5368 23.2945 14.9326 24.7 13.0001 24.7C11.0677 24.7 9.46351 23.2945 9.15406 21.45H4.75691C3.69755 21.45 3.02406 20.6652 2.76153 19.9522C2.49977 19.2413 2.50564 18.2484 3.18031 17.5317C4.41496 16.2201 5.19678 14.3919 5.37749 12.581L5.92856 6.72846ZM21.2433 19.5C21.2483 19.5 21.2496 19.4995 21.2511 19.4989C21.2539 19.4978 21.2645 19.4932 21.2814 19.4789C21.3184 19.4476 21.3708 19.3817 21.4088 19.2784C21.4465 19.176 21.4566 19.0726 21.4463 18.9919C21.4364 18.9148 21.4121 18.8811 21.4001 18.8683C19.8453 17.2166 18.9012 14.9743 18.6821 12.7715L18.6816 12.7664L18.1313 6.92151C18.1312 6.92067 18.1311 6.91982 18.131 6.91897C17.9197 4.80774 16.1055 3.24999 13.8237 3.24999H12.1765C9.89468 3.24999 8.08055 4.80779 7.86922 6.91908C7.86914 6.91989 7.86906 6.9207 7.86898 6.92151L7.31818 12.7715C7.09903 14.9743 6.15494 17.2166 4.60019 18.8683C4.58816 18.8811 4.56383 18.9148 4.55395 18.9919C4.54361 19.0726 4.55371 19.176 4.59143 19.2784C4.62946 19.3817 4.68186 19.4476 4.7189 19.4789C4.73574 19.4932 4.74621 19.4977 4.74897 19.4988C4.75059 19.4994 4.75184 19.5 4.75691 19.5H21.2433ZM11.1611 21.45C11.4288 22.2074 12.1511 22.75 13.0001 22.75C13.8492 22.75 14.5715 22.2074 14.8392 21.45H11.1611Z" fill="currentColor"/>
</svg>
