<svg width="24" height="24" viewBox="0 0 24 24" fill="none" xmlns="http://www.w3.org/2000/svg">
<path d="M13.372 4C15.629 4 17.4116 4.67565 18.7197 6.02695C19.9273 7.24888 20.5311 8.78706 20.5311 10.6415C20.5311 12.1653 20.0495 13.5597 19.0863 14.8248C18.1375 16.018 17.1025 16.6146 15.9812 16.6146C15.0755 16.6146 14.5796 16.1402 14.4933 15.1914C13.7602 16.1689 12.8545 16.6577 11.7763 16.6577C10.8851 16.6577 10.1519 16.3486 9.57688 15.7305C9.01623 15.1267 8.73591 14.3576 8.73591 13.4232C8.73591 11.7987 9.22468 10.4115 10.2022 9.26145C11.1366 8.11141 12.2507 7.53639 13.5445 7.53639C14.5796 7.53639 15.2696 8.07547 15.6146 9.15364L15.9381 7.94609H17.3397L15.8087 13.5741C15.6362 14.1923 15.5499 14.6307 15.5499 14.8895C15.5499 15.2489 15.7512 15.4286 16.1537 15.4286C16.815 15.4286 17.4834 15.0045 18.1591 14.1563C18.9354 13.1644 19.3235 12 19.3235 10.6631C19.3235 9.12489 18.806 7.85265 17.7709 6.84636C16.664 5.75382 15.169 5.20755 13.2858 5.20755C11.3019 5.20755 9.66313 5.86164 8.36933 7.16981C7.10428 8.44924 6.47176 10.0952 6.47176 12.1078C6.47176 14.2929 7.11147 15.9748 8.39089 17.1536C9.61282 18.2893 11.2732 18.8571 13.372 18.8571C14.8815 18.8571 16.204 18.584 17.3397 18.0377C18.346 17.5346 19.1438 16.8589 19.7332 16.0108H21.2426C20.4807 17.3046 19.3954 18.2965 17.9866 18.9865C16.5922 19.6622 15.054 20 13.372 20C10.7988 20 8.76466 19.2884 7.2696 17.8652C5.74579 16.3989 4.98389 14.4654 4.98389 12.0647C4.98389 9.80773 5.74579 7.92453 7.2696 6.41509C8.86529 4.80503 10.8994 4 13.372 4ZM13.7817 8.89488C12.8329 8.89488 12.0207 9.34052 11.3451 10.2318C10.6119 11.1375 10.2453 12.2228 10.2453 13.4879C10.2453 14.0773 10.3819 14.5373 10.655 14.8679C10.9426 15.2129 11.3523 15.3854 11.8842 15.3854C12.4304 15.3854 12.9623 15.1698 13.4798 14.7385C13.9974 14.3073 14.3424 13.8041 14.5149 13.2291L14.9893 11.4609C15.133 10.8428 15.2049 10.4978 15.2049 10.4259C15.2049 10.0377 15.0827 9.69991 14.8383 9.4124C14.5652 9.06738 14.213 8.89488 13.7817 8.89488Z" fill="#121212"/>
</svg>
