<svg width="16" height="16" viewBox="0 0 16 16" fill="none" xmlns="http://www.w3.org/2000/svg">
<g clip-path="url(#clip0_813_4634)">
<path d="M13.3333 7.33334C13.1703 6.16015 12.626 5.07311 11.7844 4.23967C10.9428 3.40623 9.85046 2.87262 8.67574 2.72104C7.50102 2.56947 6.30904 2.80833 5.28343 3.40084C4.25781 3.99335 3.45546 4.90663 2.99996 6.00001M2.66663 3.33334V6.00001H5.33329" stroke="#121212" stroke-linecap="round" stroke-linejoin="round"/>
<path d="M2.66663 8.66663C2.82967 9.83981 3.37391 10.9269 4.21553 11.7603C5.05715 12.5937 6.14945 13.1273 7.32418 13.2789C8.4989 13.4305 9.69088 13.1916 10.7165 12.5991C11.7421 12.0066 12.5445 11.0933 13 9.99996M13.3333 12.6666V9.99996H10.6666" stroke="#121212" stroke-linecap="round" stroke-linejoin="round"/>
</g>
<defs>
<clipPath id="clip0_813_4634">
<rect width="16" height="16" fill="white"/>
</clipPath>
</defs>
</svg>
