<svg width="26" height="26" viewBox="0 0 26 26" fill="none" xmlns="http://www.w3.org/2000/svg">
<rect width="26" height="26" />
<path fill-rule="evenodd" clip-rule="evenodd" d="M4.26099 4.26087C4.85486 3.667 5.66031 3.33337 6.50016 3.33337H17.3335C17.886 3.33337 18.4159 3.55287 18.8066 3.94357C19.1973 4.33427 19.4168 4.86418 19.4168 5.41671V7.66671H19.5002C20.0527 7.66671 20.5826 7.8862 20.9733 8.2769C21.364 8.6676 21.5835 9.19751 21.5835 9.75004V12H21.6669C22.2192 12 22.6669 12.4478 22.6669 13V17.3334C22.6669 17.8857 22.2192 18.3334 21.6669 18.3334H21.5835V20.5834C21.5835 21.1359 21.364 21.6658 20.9733 22.0565C20.5826 22.4472 20.0527 22.6667 19.5002 22.6667H6.50016C5.66031 22.6667 4.85486 22.3331 4.26099 21.7392C3.66713 21.1453 3.3335 20.3399 3.3335 19.5V6.50004C3.3335 5.66019 3.66713 4.85473 4.26099 4.26087ZM5.3335 9.44396V19.5C5.3335 19.8095 5.45641 20.1062 5.6752 20.325C5.894 20.5438 6.19074 20.6667 6.50016 20.6667H19.5002C19.5223 20.6667 19.5435 20.6579 19.5591 20.6423C19.5747 20.6267 19.5835 20.6055 19.5835 20.5834V18.3334H17.3335C16.4937 18.3334 15.6882 17.9997 15.0944 17.4059C14.5005 16.812 14.1669 16.0066 14.1669 15.1667C14.1669 14.3269 14.5005 13.5214 15.0944 12.9275C15.6882 12.3337 16.4937 12 17.3335 12H19.5835V9.75004C19.5835 9.72794 19.5747 9.70674 19.5591 9.69112C19.5435 9.67549 19.5223 9.66671 19.5002 9.66671H6.50016C6.0968 9.66671 5.70136 9.58975 5.3335 9.44396ZM17.4168 7.66671H6.50016C6.19074 7.66671 5.894 7.54379 5.6752 7.325C5.45641 7.10621 5.3335 6.80946 5.3335 6.50004C5.3335 6.19062 5.45641 5.89388 5.6752 5.67508C5.894 5.45629 6.19074 5.33337 6.50016 5.33337H17.3335C17.3556 5.33337 17.3768 5.34215 17.3924 5.35778C17.408 5.37341 17.4168 5.3946 17.4168 5.41671V7.66671ZM20.6669 14H17.3335C17.0241 14 16.7274 14.123 16.5086 14.3418C16.2898 14.5605 16.1669 14.8573 16.1669 15.1667C16.1669 15.4761 16.2898 15.7729 16.5086 15.9917C16.7274 16.2105 17.0241 16.3334 17.3335 16.3334H20.5811C20.5819 16.3334 20.5827 16.3334 20.5835 16.3334C20.5843 16.3334 20.5851 16.3334 20.5859 16.3334H20.6669V14Z" fill="currentColor"/>
</svg>
