<svg width="32" height="32" viewBox="0 0 32 32" fill="none" xmlns="http://www.w3.org/2000/svg">
<g clip-path="url(#clip0_740_60746)">
<rect x="0.767767" y="15.291" width="21.6074" height="21.4758" rx="3.75" transform="rotate(-45 0.767767 15.291)" fill="white" stroke="white" stroke-width="2.5"/>
<path d="M10 12L11.7742 18.4783C12.0429 19.4594 13.4345 19.4594 13.7032 18.4783L15.4774 12M22 13.218C22 13.218 21.0147 12.3617 19.7069 12.3617C18.6919 12.3617 17.6647 12.8969 17.6647 13.9495C17.6647 15.2161 19.1954 15.704 19.8924 15.9963C20.5895 16.2886 22.2648 16.7479 21.748 18.3989C21.4233 19.4362 20.1724 19.8544 19.1874 19.6761C18.2024 19.4977 17.0556 18.6057 17.0556 18.6057" stroke="#1F1F1F" stroke-width="2" stroke-linecap="round"/>
</g>
<defs>
<clipPath id="clip0_740_60746">
<rect width="32" height="32" fill="white"/>
</clipPath>
</defs>
</svg>
