<svg width="61" height="61" viewBox="0 0 61 61" fill="none" xmlns="http://www.w3.org/2000/svg">
<path fill-rule="evenodd" clip-rule="evenodd" d="M48.941 39.0302C49.277 38.6942 49.7327 38.5055 50.2079 38.5055C50.6831 38.5055 51.1388 38.6942 51.4748 39.0302C51.8108 39.3662 51.9996 39.8219 51.9996 40.2971V46.7614C51.9996 46.8603 51.9741 46.9507 51.9484 47.0415C51.9388 47.0757 51.9291 47.11 51.9207 47.1448C52.0231 47.4819 52.0238 47.8416 51.9228 48.1791C51.8217 48.5166 51.6235 48.8168 51.3528 49.0422L40.6029 58.0004C40.1819 58.3516 39.6497 58.4555 39.1481 58.3659C39.1143 58.3709 39.0819 58.38 39.0496 58.3891C39.0014 58.4026 38.9534 58.4161 38.9008 58.4161H14.5452C11.4886 58.4161 9 55.8809 9 52.7652V13.3175C9 10.2018 11.4886 7.6666 14.5452 7.6666H46.4526C49.511 7.6666 51.9996 10.2018 51.9996 13.3175V20.2852C51.9996 20.7604 51.8108 21.2161 51.4748 21.5521C51.1388 21.8881 50.6831 22.0768 50.2079 22.0768C49.7327 22.0768 49.277 21.8881 48.941 21.5521C48.605 21.2161 48.4163 20.7604 48.4163 20.2852V13.3175C48.4163 12.178 47.5366 11.2499 46.4526 11.2499H14.5452C13.463 11.2499 12.5833 12.178 12.5833 13.3175V52.7652C12.5833 53.9047 13.463 54.8328 14.5452 54.8328H37.6664V49.4578C37.6664 48.0323 38.2327 46.6652 39.2407 45.6572C40.2487 44.6492 41.6158 44.0829 43.0413 44.0829H48.4163V40.2971C48.4163 39.8219 48.605 39.3662 48.941 39.0302ZM47.4094 47.6662H43.0413C42.5662 47.6662 42.1104 47.8549 41.7744 48.1909C41.4384 48.5269 41.2497 48.9826 41.2497 49.4578V52.7992L47.4094 47.6662ZM22.6117 23.1708C22.8396 23.2292 23.0538 23.3319 23.242 23.473C23.4303 23.6142 23.5888 23.7911 23.7087 23.9935C23.8286 24.196 23.9074 24.4201 23.9407 24.653C23.974 24.8859 23.961 25.1231 23.9026 25.351C23.8442 25.5789 23.7415 25.7931 23.6004 25.9813L19.0317 32.073L23.6004 38.1646C23.8855 38.5447 24.0079 39.0225 23.9407 39.4929C23.8735 39.9633 23.6222 40.3878 23.242 40.6729C22.8619 40.958 22.3841 41.0804 21.9137 41.0132C21.4433 40.946 21.0188 40.6947 20.7337 40.3145L15.3588 33.1479C15.1259 32.8379 15 32.4607 15 32.073C15 31.6852 15.1259 31.308 15.3588 30.998L20.7337 23.8314C20.8749 23.6431 21.0518 23.4846 21.2542 23.3647C21.4567 23.2448 21.6807 23.166 21.9137 23.1327C22.1466 23.0994 22.3838 23.1124 22.6117 23.1708ZM42.1286 41.0132C41.6582 41.0804 41.1803 40.958 40.8002 40.6729C40.612 40.5317 40.4534 40.3548 40.3335 40.1524C40.2136 39.9499 40.1348 39.7258 40.1015 39.4929C40.0683 39.26 40.0812 39.0228 40.1396 38.7949C40.198 38.567 40.3007 38.3528 40.4419 38.1646L45.0106 32.073L40.4419 25.9813C40.1568 25.6012 40.0343 25.1234 40.1015 24.653C40.1687 24.1826 40.4201 23.7581 40.8002 23.473C41.1803 23.1879 41.6582 23.0655 42.1286 23.1327C42.599 23.1999 43.0234 23.4512 43.3085 23.8314L48.6834 30.998C48.9163 31.308 49.0422 31.6852 49.0422 32.073C49.0422 32.4607 48.9163 32.8379 48.6834 33.1479L43.3085 40.3145C43.0234 40.6947 42.599 40.946 42.1286 41.0132ZM28.4808 38.8508L32.0641 22.7259C32.1115 22.4926 32.2049 22.2712 32.3389 22.0744C32.4729 21.8776 32.6447 21.7095 32.8444 21.5799C33.044 21.4503 33.2675 21.3618 33.5018 21.3195C33.736 21.2772 33.9764 21.2821 34.2087 21.3338C34.4411 21.3854 34.6608 21.4829 34.8551 21.6204C35.0494 21.758 35.2143 21.9328 35.3403 22.1348C35.4662 22.3368 35.5506 22.5619 35.5886 22.7969C35.6266 23.0319 35.6173 23.2721 35.5614 23.5035L31.9781 39.6283C31.9307 39.8616 31.8373 40.0831 31.7033 40.2799C31.5694 40.4766 31.3975 40.6447 31.1979 40.7743C30.9982 40.904 30.7747 40.9925 30.5405 41.0347C30.3062 41.077 30.0659 41.0722 29.8335 41.0205C29.6011 40.9688 29.3814 40.8714 29.1871 40.7338C28.9928 40.5963 28.8279 40.4214 28.702 40.2194C28.576 40.0174 28.4916 39.7923 28.4536 39.5573C28.4157 39.3223 28.4249 39.0821 28.4808 38.8508Z" fill="white"/>
</svg>
