<svg width="61" height="61" viewBox="0 0 61 61" fill="none" xmlns="http://www.w3.org/2000/svg">
<path d="M9.28 37.7911H20.93C20.6398 35.3017 20.4962 32.7973 20.5 30.2911C20.5 27.6811 20.65 25.1611 20.93 22.7911H9.28C8.42996 25.2001 7.99708 27.7365 8 30.2911C8 32.9211 8.45 35.4461 9.28 37.7911ZM10.34 40.2911C11.8308 43.2905 13.9712 45.92 16.6057 47.9884C19.2402 50.0568 22.3025 51.5121 25.57 52.2486C23.62 49.5986 22.13 45.3836 21.285 40.2911H10.34ZM51.72 37.7911C52.57 35.3811 53.0025 32.8461 53 30.2911C53 27.6611 52.55 25.1361 51.72 22.7911H40.07C40.3525 25.1611 40.5 27.6811 40.5 30.2911C40.5 32.9011 40.35 35.4211 40.07 37.7911H51.72ZM50.66 40.2911H39.715C38.87 45.3836 37.3775 49.5986 35.43 52.2486C38.6975 51.5121 41.7598 50.0568 44.3943 47.9884C47.0288 45.92 49.1692 43.2905 50.66 40.2911ZM23.46 37.7911H37.54C37.835 35.4461 38 32.9236 38 30.2911C38 27.6586 37.835 25.1361 37.54 22.7911H23.46C23.1504 25.279 22.9968 27.7839 23 30.2911C23 32.9236 23.165 35.4461 23.46 37.7911ZM23.8375 40.2911C25.1425 47.7111 27.795 52.7911 30.5 52.7911C33.205 52.7911 35.8575 47.7111 37.1625 40.2911H23.8375ZM10.3375 20.2911H21.285C22.13 15.1986 23.6225 10.9836 25.57 8.33358C22.3025 9.07004 19.2402 10.5254 16.6057 12.5938C13.9712 14.6622 11.8308 17.2917 10.34 20.2911H10.3375ZM50.6625 20.2911C49.1715 17.2914 47.0306 14.6617 44.3957 12.5933C41.7607 10.5249 38.6979 9.0697 35.43 8.33358C37.38 10.9836 38.87 15.1986 39.715 20.2911H50.6625ZM23.835 20.2911H37.16C35.8575 12.8711 33.205 7.79108 30.5 7.79108C27.795 7.79108 25.1425 12.8711 23.8375 20.2911H23.835ZM30.5 55.2911C16.6925 55.2911 5.5 44.0986 5.5 30.2911C5.5 16.4836 16.6925 5.29108 30.5 5.29108C44.3075 5.29108 55.5 16.4836 55.5 30.2911C55.5 44.0986 44.3075 55.2911 30.5 55.2911Z" fill="white" stroke="white" stroke-width="0.5"/>
</svg>
