<svg width="51" height="51" viewBox="0 0 51 51" fill="none" xmlns="http://www.w3.org/2000/svg">
<path fill-rule="evenodd" clip-rule="evenodd" d="M42.5079 8.28949V0.291077H39.3084V9.22437L21.2547 27.2727L23.5147 29.5364L41.5641 11.4793H50.5V8.28949H42.5079ZM42.0153 17.322L39.6567 19.6893C40.9704 22.3066 41.6541 25.1949 41.6531 28.1234C41.6531 38.5928 33.1327 47.1132 22.6677 47.1132C12.194 47.1132 3.6779 38.5928 3.6779 28.1234C3.6779 17.6627 12.194 9.13797 22.6677 9.13797C25.6041 9.13797 28.4845 9.82788 31.0975 11.1215L33.4475 8.76715C30.1618 6.92164 26.4622 5.95145 22.6677 5.95145C10.4433 5.95145 0.5 15.9034 0.5 28.1234C0.5 40.3521 10.4433 50.2911 22.6677 50.2911C34.8877 50.2911 44.8396 40.3521 44.8396 28.1234C44.8353 24.3203 43.8608 20.6207 42.0153 17.322ZM22.6742 35.7074C26.3968 35.7074 29.4997 33.0023 30.1327 29.4561L33.333 26.2463C33.4436 26.8484 33.5189 27.4771 33.5189 28.1191C33.5189 34.1047 28.6499 38.9703 22.6742 38.9703C16.6853 38.9703 11.8208 34.1047 11.8208 28.1191C11.8208 22.1466 16.6853 17.2722 22.6742 17.2722C23.3116 17.2722 23.9313 17.3386 24.551 17.4404L21.333 20.6635C17.7875 21.3055 15.0918 24.4046 15.0918 28.1191C15.0918 32.3028 18.4913 35.7074 22.6742 35.7074Z" fill="white"/>
</svg>
