<svg width="24" height="25" viewBox="0 0 24 25" fill="none" xmlns="http://www.w3.org/2000/svg">
<g clip-path="url(#clip0_3583_1080)">
<path d="M20.317 4.3609C18.7873 3.65901 17.147 3.1419 15.4319 2.84572C15.4007 2.84001 15.3695 2.85429 15.3534 2.88286C15.1424 3.25808 14.9087 3.74758 14.7451 4.13232C12.9004 3.85615 11.0652 3.85615 9.25832 4.13232C9.09465 3.73903 8.85248 3.25808 8.64057 2.88286C8.62448 2.85525 8.59328 2.84096 8.56205 2.84572C6.84791 3.14095 5.20756 3.65807 3.67693 4.3609C3.66368 4.36661 3.65233 4.37614 3.64479 4.38851C0.533392 9.03687 -0.31895 13.571 0.0991801 18.0489C0.101072 18.0708 0.11337 18.0917 0.130398 18.1051C2.18321 19.6126 4.17171 20.5278 6.12328 21.1344C6.15451 21.144 6.18761 21.1325 6.20748 21.1068C6.66913 20.4764 7.08064 19.8117 7.43348 19.1126C7.4543 19.0717 7.43442 19.0231 7.39186 19.0069C6.73913 18.7593 6.1176 18.4574 5.51973 18.1146C5.47244 18.087 5.46865 18.0193 5.51216 17.9869C5.63797 17.8927 5.76382 17.7946 5.88396 17.6955C5.90569 17.6774 5.93598 17.6736 5.96153 17.6851C9.88928 19.4783 14.1415 19.4783 18.023 17.6851C18.0485 17.6727 18.0788 17.6765 18.1015 17.6946C18.2216 17.7936 18.3475 17.8927 18.4742 17.9869C18.5177 18.0193 18.5149 18.087 18.4676 18.1146C17.8697 18.4641 17.2482 18.7593 16.5945 19.006C16.552 19.0222 16.533 19.0717 16.5538 19.1126C16.9143 19.8107 17.3258 20.4754 17.7789 21.1059C17.7978 21.1325 17.8319 21.144 17.8631 21.1344C19.8241 20.5278 21.8126 19.6126 23.8654 18.1051C23.8834 18.0917 23.8948 18.0717 23.8967 18.0498C24.3971 12.8729 23.0585 8.37596 20.3482 4.38946C20.3416 4.37614 20.3303 4.36661 20.317 4.3609ZM8.02002 15.3223C6.8375 15.3223 5.86313 14.2367 5.86313 12.9034C5.86313 11.5701 6.8186 10.4844 8.02002 10.4844C9.23087 10.4844 10.1958 11.5796 10.1769 12.9034C10.1769 14.2367 9.22141 15.3223 8.02002 15.3223ZM15.9947 15.3223C14.8123 15.3223 13.8379 14.2367 13.8379 12.9034C13.8379 11.5701 14.7933 10.4844 15.9947 10.4844C17.2056 10.4844 18.1705 11.5796 18.1516 12.9034C18.1516 14.2367 17.2056 15.3223 15.9947 15.3223Z" fill="white"/>
</g>
<defs>
<clipPath id="clip0_3583_1080">
<rect width="24" height="24" fill="white" transform="translate(0 0.205322)"/>
</clipPath>
</defs>
</svg>
