<svg width="75" height="75" viewBox="0 0 75 75" fill="none" xmlns="http://www.w3.org/2000/svg">
<path d="M34.3734 40.6266C34.3734 38.8969 35.775 37.5 37.5 37.5H37.5281C38.3358 37.5313 39.0999 37.8741 39.6603 38.4566C40.2206 39.0391 40.5336 39.816 40.5336 40.6242C40.5336 41.4325 40.2206 42.2093 39.6603 42.7918C39.0999 43.3743 38.3358 43.7171 37.5281 43.7484H37.5C36.6716 43.7484 35.877 43.4197 35.2908 42.8343C34.7046 42.249 34.3747 41.455 34.3734 40.6266Z" fill="black"/>
<path d="M49.9969 17.9109H39.8437V20.7047L39.9703 20.7656C40.6078 21.0844 41.3156 21.5391 42.0609 22.0219L48.7406 26.3156C50.0672 27.1688 51.2015 27.8953 52.0875 28.5938C53.025 29.3344 53.8312 30.1406 54.4172 31.2141C55.0031 32.2922 55.2515 33.3984 55.364 34.5891C55.4672 35.7141 55.4672 37.0594 55.4672 38.6391V38.7938C56.8828 39.1406 58.1953 39.4734 59.3578 39.8203C60.9984 40.3078 62.5453 40.875 63.8437 41.7047C65.2031 42.5672 66.2906 43.7062 67.0078 45.2672C67.6969 46.7719 67.9687 48.5203 67.9687 50.5078V66.4078H68.7469C69.3685 66.4078 69.9646 66.6547 70.4041 67.0943C70.8437 67.5338 71.0906 68.13 71.0906 68.7516C71.0906 69.3732 70.8437 69.9693 70.4041 70.4088C69.9646 70.8484 69.3685 71.0953 68.7469 71.0953H6.24841C5.62681 71.0953 5.03067 70.8484 4.59113 70.4088C4.15159 69.9693 3.90466 69.3732 3.90466 68.7516C3.90466 68.13 4.15159 67.5338 4.59113 67.0943C5.03067 66.6547 5.62681 66.4078 6.24841 66.4078H7.03123V50.5078C7.03123 48.5203 7.29841 46.7719 7.99216 45.2625C8.67066 43.7905 9.77004 42.5525 11.1515 41.7047C12.4594 40.875 14.0015 40.3078 15.6422 39.8203C16.8047 39.4734 18.1172 39.1406 19.5328 38.7891V38.6391C19.5328 37.0594 19.5328 35.7141 19.6359 34.5938C19.7484 33.3984 19.9922 32.2875 20.5828 31.2141C21.1687 30.1359 21.9703 29.3344 22.9125 28.5891C23.9942 27.7825 25.1109 27.0239 26.2594 26.3156L32.9344 22.0219C33.6844 21.5391 34.3875 21.0844 35.0297 20.7656L35.1562 20.7047V9.17344C35.1562 8.53125 35.1562 7.83281 35.2312 7.24688C35.3196 6.38395 35.6942 5.5754 36.2953 4.95C37.5469 3.68438 39.2859 3.85781 40.1531 4.0125C41.2172 4.2 42.3562 4.62188 43.3875 5.06719C45.4875 5.98125 47.639 7.25156 48.7922 7.96406C51.7828 9.80156 52.3406 13.2656 52.3406 15.5672C52.3406 16.1888 52.0937 16.7849 51.6541 17.2245C51.2146 17.664 50.6185 17.9109 49.9969 17.9109ZM38.9719 8.59219H39.0234C39.0079 8.59443 38.9921 8.59443 38.9765 8.59219H38.9719ZM41.5172 9.36563C40.9738 9.12232 40.4147 8.91561 39.8437 8.74688V13.2234H47.2969C47.1247 12.7072 46.7869 12.2623 46.3359 11.9578C44.7875 10.9904 43.1778 10.1245 41.5172 9.36563ZM37.1344 24.9562C36.5354 25.2838 35.952 25.6388 35.3859 26.0203L28.8844 30.2016C27.8305 30.85 26.8045 31.5428 25.8094 32.2781C25.3587 32.5892 24.9785 32.9917 24.6937 33.4594C24.4551 33.9513 24.3225 34.4879 24.3047 35.0344C24.2242 36.2686 24.196 37.5056 24.2203 38.7422V66.4078H35.1562V56.25C35.1562 55.6284 35.4032 55.0323 35.8427 54.5927C36.2822 54.1532 36.8784 53.9063 37.5 53.9063C38.1216 53.9063 38.7177 54.1532 39.1573 54.5927C39.5968 55.0323 39.8437 55.6284 39.8437 56.25V66.4078H50.7797V40.6734V38.7469C50.7797 37.0359 50.7797 35.9109 50.6953 35.0391C50.676 34.4923 50.5418 33.9556 50.3015 33.4641C50.0181 32.9968 49.6396 32.5944 49.1906 32.2828C48.1954 31.5475 47.1695 30.8547 46.1156 30.2062L39.6094 26.0156C39.0448 25.6343 38.4629 25.2792 37.8656 24.9516C37.7504 24.8912 37.6295 24.8426 37.5047 24.8062H37.4953L37.4578 24.8109C37.3444 24.8477 37.2345 24.8948 37.1297 24.9516L37.1344 24.9562ZM55.4672 66.4078H63.2812V50.5078C63.2812 48.9141 63.0562 47.9016 62.7469 47.2219C62.4437 46.5689 61.9481 46.0242 61.3265 45.6609C60.5765 45.1828 59.5312 44.7609 58.0219 44.3109C57.2484 44.0813 56.4047 43.8609 55.4672 43.6219V66.4031V66.4078ZM11.7187 66.4078H19.5328V43.6266C18.5953 43.8609 17.7515 44.0813 16.9734 44.3109C15.4687 44.7609 14.4234 45.1828 13.6687 45.6609C13.0489 46.025 12.555 46.5696 12.2531 47.2219C11.939 47.9016 11.7187 48.9094 11.7187 50.5031V66.4078Z" fill="black"/>
</svg>
