<svg width="61" height="61" viewBox="0 0 61 61" fill="none" xmlns="http://www.w3.org/2000/svg">
<g clip-path="url(#clip0_1567_4622)">
<path d="M30.5 4.38196C32.248 4.38176 33.9293 5.05293 35.1966 6.25681C36.464 7.4607 37.2205 9.10535 37.31 10.851C42.8917 12.5676 47.6204 16.3266 50.5517 21.3772C53.483 26.4279 54.4011 32.3985 53.1227 38.0965C53.9165 38.5323 54.6154 39.1218 55.1789 39.8307C55.7423 40.5396 56.1589 41.3536 56.4043 42.2252C56.6497 43.0968 56.719 44.0086 56.6082 44.9073C56.4975 45.806 56.2088 46.6736 55.759 47.4595C55.3093 48.2455 54.7075 48.9339 53.9888 49.4847C53.2701 50.0356 52.4489 50.4377 51.573 50.6677C50.6972 50.8977 49.7844 50.9509 48.8878 50.8243C47.9912 50.6976 47.1288 50.3937 46.3509 49.9301C42.0609 53.9661 36.3901 56.2092 30.5 56.2001C24.6093 56.208 18.9382 53.9651 14.6464 49.9301C13.0785 50.8004 11.2309 51.018 9.50373 50.5357C7.77658 50.0535 6.30895 48.9102 5.41873 47.3536C4.52851 45.7969 4.28736 43.9522 4.74753 42.2191C5.2077 40.4859 6.33213 39.0038 7.87728 38.0938C6.59988 32.3954 7.51914 26.4249 10.4515 21.3748C13.3838 16.3246 18.1133 12.5665 23.6955 10.851L23.6818 11.2001C23.6818 9.39185 24.4002 7.65761 25.6788 6.37896C26.9575 5.1003 28.6917 4.38196 30.5 4.38196ZM39.8573 40.2101L30.5 45.6129L21.1373 40.2101L17.9273 41.9174C18.2536 42.9754 18.3173 44.097 18.113 45.1851C17.9087 46.2733 17.4424 47.2953 16.7545 48.1629L16.2173 47.661C20.0336 51.3936 25.1618 53.4803 30.5 53.4729C35.7936 53.4729 40.6182 51.4629 44.2509 48.1629C43.563 47.2964 43.0963 46.2755 42.891 45.1884C42.6857 44.1013 42.7481 42.9805 43.0727 41.9229L39.8573 40.2101ZM11.4091 39.8365C10.3241 39.8365 9.28358 40.2675 8.51639 41.0347C7.74919 41.8019 7.31819 42.8424 7.31819 43.9274C7.31819 45.0124 7.74919 46.0529 8.51639 46.8201C9.28358 47.5873 10.3241 48.0183 11.4091 48.0183C12.4941 48.0183 13.5346 47.5873 14.3018 46.8201C15.069 46.0529 15.5 45.0124 15.5 43.9274C15.5 42.8424 15.069 41.8019 14.3018 41.0347C13.5346 40.2675 12.4941 39.8365 11.4091 39.8365ZM49.5909 39.8365C48.5059 39.8365 47.4654 40.2675 46.6982 41.0347C45.931 41.8019 45.5 42.8424 45.5 43.9274C45.5 45.0124 45.931 46.0529 46.6982 46.8201C47.4654 47.5873 48.5059 48.0183 49.5909 48.0183C50.6759 48.0183 51.7164 47.5873 52.4836 46.8201C53.2508 46.0529 53.6818 45.0124 53.6818 43.9274C53.6818 42.8424 53.2508 41.8019 52.4836 41.0347C51.7164 40.2675 50.6759 39.8365 49.5909 39.8365ZM36.8873 13.581L36.7809 13.8565C36.3487 14.8761 35.675 15.7753 34.8179 16.4766C33.9607 17.1779 32.9459 17.6602 31.8609 17.882V21.8556L41.1282 27.2038V37.7938L44.3845 39.5256C45.1267 38.6458 46.08 37.9686 47.1551 37.5575C48.2301 37.1463 49.392 37.0146 50.5318 37.1747C51.5517 32.2531 50.7246 27.1282 48.2081 22.7773C45.6917 18.4265 41.6619 15.1539 36.8873 13.5838V13.581ZM24.11 13.5838L23.7336 13.7092C19.055 15.3497 15.1311 18.6331 12.6912 22.9491C10.2513 27.2651 9.46138 32.3201 10.4682 37.1747C11.608 37.0146 12.7699 37.1463 13.845 37.5575C14.9201 37.9686 15.8733 38.6458 16.6155 39.5256L19.8691 37.7938V27.2038L29.1364 21.8556V17.882C28.0036 17.6495 26.9484 17.1331 26.0697 16.3813C25.1911 15.6295 24.5177 14.6669 24.1127 13.5838H24.11ZM30.5 7.10923C29.9628 7.10923 29.4308 7.21505 28.9345 7.42063C28.4381 7.62622 27.9872 7.92755 27.6073 8.30743C27.2274 8.68731 26.9261 9.13829 26.7205 9.63462C26.5149 10.1309 26.4091 10.6629 26.4091 11.2001C26.4091 11.7374 26.5149 12.2693 26.7205 12.7657C26.9261 13.262 27.2274 13.713 27.6073 14.0928C27.9872 14.4727 28.4381 14.7741 28.9345 14.9796C29.4308 15.1852 29.9628 15.291 30.5 15.291C31.585 15.291 32.6255 14.86 33.3927 14.0928C34.1599 13.3257 34.5909 12.2851 34.5909 11.2001C34.5909 10.1152 34.1599 9.07462 33.3927 8.30743C32.6255 7.54024 31.585 7.10923 30.5 7.10923Z" fill="white"/>
</g>
<defs>
<clipPath id="clip0_1567_4622">
<rect width="60" height="60" fill="white" transform="translate(0.5 0.291077)"/>
</clipPath>
</defs>
</svg>
