<svg width="75" height="75" viewBox="0 0 75 75" fill="none" xmlns="http://www.w3.org/2000/svg">
<path d="M54 24.4288L39.5755 7.852C39.303 7.58192 38.9792 7.36765 38.6228 7.22145C38.2664 7.07525 37.8844 7 37.4985 7C37.1127 7 36.7306 7.07525 36.3742 7.22145C36.0178 7.36765 35.694 7.58192 35.4215 7.852L19 24.4288M14 24.4288V53.4763L37.4993 68L61 53.4763V24.4288H14ZM46.3124 53.4763L37.4993 47.6674L28.6876 53.4763L31.6248 44.7615L25.7489 38.9526H34.562L37.4993 30.2392L40.4365 38.9526H49.2482L43.3737 44.7615L46.3124 53.4763Z" stroke="black" stroke-width="4" stroke-linejoin="round"/>
</svg>
