<svg width="61" height="61" viewBox="0 0 61 61" fill="none" xmlns="http://www.w3.org/2000/svg">
<path fill-rule="evenodd" clip-rule="evenodd" d="M29.5 20.8184V17.0281L16.289 24.1229L20.0513 25.9722L29.5 20.8184ZM31.5 16.9063V20.7411L42.9496 25.5117L46.6351 23.1912L31.5 16.9063ZM31.5 14.5411V10.9063L52.3774 19.5757L48.8753 21.7807L31.5 14.5411ZM29.5 8.61837V7.29108C29.5 6.69108 29.9 6.29108 30.5 6.29108C31.1 6.29108 31.5 6.69108 31.5 7.29108V8.54106L53.5 17.7077V17.2911C53.5 16.6911 53.9 16.2911 54.5 16.2911C55.1 16.2911 55.5 16.6911 55.5 17.2911V18.841C55.6 19.091 55.6001 19.391 55.5 19.6911L55.5 19.6912V24.841C55.5214 24.8945 55.5383 24.9504 55.5505 25.0081C55.6449 25.2653 55.6558 25.5796 55.5 25.8678V31.2911V39.2911C55.5 39.6911 55.3 39.8911 55.1 40.0911L33.1 54.0911C32.9 54.2911 32.7 54.2911 32.5 54.2911C32.3 54.2911 32.1 54.2911 32.1 54.0911L8.1 42.0911C7.7 41.8911 7.5 41.4911 7.5 41.2911V33.2911V19.2911C7.5 18.6911 7.9 18.2911 8.5 18.2911C9.1 18.2911 9.5 18.6911 9.5 19.2911V19.5275L29.5 8.61837ZM29.5 11.0281L10.4556 21.2557L14.0724 23.0334L29.5 14.6184V11.0281ZM32.5 46.2911C32.3836 46.2911 32.2672 46.2911 32.1903 46.2517C31.9606 46.1896 31.7771 46.0565 31.6573 45.8697L9.5 34.7911V40.6911L32.5 52.0911L53.5 38.6911V33.3093L33.1 46.2911H32.5ZM33.5 43.4611L52.5 31.4911L49.1087 30.1037L33.5 40.0366V43.4611ZM31.5 37.5995V33.7911L20.1696 28.1258L16.4043 30.1796L31.5 37.5995ZM33.5 31.4615V31.2911C33.5 30.6911 33.1 30.2911 32.5 30.2911C31.9 30.2911 31.5 30.6911 31.5 31.2911V31.5995L22.1904 27.0236L30.5 22.4911L40.9545 26.7679L33.5 31.4615ZM33.5 33.7093V37.4615L46.7308 29.131L43.0565 27.6278L33.5 33.7093ZM31.5 43.5957V39.7911L14.4305 31.2563L10.7 33.2911L31.5 43.5957ZM9.5 22.7911L12.1174 24.0998L9.5 25.5275V22.7911ZM14.3 25.1911L10.4556 27.2557L14.2653 29.1282L18.0479 27.065L14.3 25.1911ZM45.0238 26.376L48.6885 24.0439L52.3774 25.5757L48.6841 27.9011L45.0238 26.376ZM50.9116 22.6292L53.5 23.7077V20.982L50.9116 22.6292ZM53.5 27.3093L51.0324 28.8796L53.5 29.9077V27.3093ZM12.3087 30.1954L9.5 28.7911V31.7274L12.3087 30.1954Z" fill="white"/>
<path d="M29.5 20.8184L29.5479 20.9061L29.6 20.8777V20.8184H29.5ZM29.5 17.0281H29.6V16.8609L29.4527 16.94L29.5 17.0281ZM16.289 24.1229L16.2417 24.0348L16.0703 24.1269L16.2449 24.2127L16.289 24.1229ZM20.0513 25.9722L20.0072 26.0619L20.0537 26.0848L20.0992 26.06L20.0513 25.9722ZM31.5 16.9063L31.5384 16.814L31.4 16.7565V16.9063H31.5ZM31.5 20.7411H31.4V20.8077L31.4615 20.8334L31.5 20.7411ZM42.9496 25.5117L42.9111 25.604L42.959 25.624L43.0029 25.5964L42.9496 25.5117ZM46.6351 23.1912L46.6884 23.2758L46.8518 23.1729L46.6734 23.0989L46.6351 23.1912ZM31.5 10.9063L31.5384 10.814L31.4 10.7565V10.9063H31.5ZM31.5 14.5411H31.4V14.6077L31.4615 14.6334L31.5 14.5411ZM52.3774 19.5757L52.4306 19.6603L52.5941 19.5574L52.4157 19.4834L52.3774 19.5757ZM48.8753 21.7807L48.8368 21.8731L48.8847 21.893L48.9285 21.8654L48.8753 21.7807ZM29.5 8.61837L29.5479 8.70616L29.6 8.67774V8.61837H29.5ZM31.5 8.54106H31.4V8.60772L31.4615 8.63337L31.5 8.54106ZM53.5 17.7077L53.4615 17.8L53.6 17.8577V17.7077H53.5ZM55.5 18.841H55.4V18.8602L55.4072 18.8781L55.5 18.841ZM55.5 19.6911L55.4052 19.6595V19.6595L55.5 19.6911ZM55.5 19.6912L55.4051 19.6596L55.4 19.675V19.6912H55.5ZM55.5 24.841H55.4V24.8602L55.4072 24.8781L55.5 24.841ZM55.5505 25.0081L55.4527 25.0289L55.4542 25.0359L55.4567 25.0425L55.5505 25.0081ZM55.5 25.8678L55.412 25.8202L55.4 25.8425V25.8678H55.5ZM55.1 40.0911L55.1537 40.1754L55.163 40.1695L55.1707 40.1618L55.1 40.0911ZM33.1 54.0911L33.0463 54.0067L33.0371 54.0126L33.0293 54.0204L33.1 54.0911ZM32.1 54.0911H32.2V54.0293L32.1447 54.0016L32.1 54.0911ZM8.1 42.0911L8.05528 42.1805H8.05528L8.1 42.0911ZM9.5 19.5275H9.4V19.6959L9.54789 19.6153L9.5 19.5275ZM10.4556 21.2557L10.4083 21.1676L10.2369 21.2596L10.4115 21.3454L10.4556 21.2557ZM29.5 11.0281H29.6V10.8609L29.4527 10.94L29.5 11.0281ZM14.0724 23.0334L14.0283 23.1232L14.0748 23.146L14.1203 23.1212L14.0724 23.0334ZM29.5 14.6184L29.5479 14.7062L29.6 14.6777V14.6184H29.5ZM32.1903 46.2517L32.2358 46.1627L32.2265 46.1579L32.2164 46.1551L32.1903 46.2517ZM31.6573 45.8697L31.7414 45.8157L31.7266 45.7926L31.702 45.7803L31.6573 45.8697ZM9.5 34.7911L9.54472 34.7016L9.4 34.6293V34.7911H9.5ZM9.5 40.6911H9.4V40.7531L9.45559 40.7807L9.5 40.6911ZM32.5 52.0911L32.4556 52.1807L32.5062 52.2058L32.5538 52.1754L32.5 52.0911ZM53.5 38.6911L53.5538 38.7754L53.6 38.7459V38.6911H53.5ZM53.5 33.3093H53.6V33.1271L53.4463 33.2249L53.5 33.3093ZM33.1 46.2911V46.3911H33.1291L33.1537 46.3754L33.1 46.2911ZM33.5 43.4611H33.4V43.6423L33.5533 43.5457L33.5 43.4611ZM52.5 31.4911L52.5533 31.5757L52.7177 31.4721L52.5379 31.3985L52.5 31.4911ZM49.1087 30.1037L49.1466 30.0112L49.0987 29.9916L49.055 30.0194L49.1087 30.1037ZM33.5 40.0366L33.4463 39.9522L33.4 39.9817V40.0366H33.5ZM31.5 37.5995L31.4559 37.6893L31.6 37.7601V37.5995H31.5ZM31.5 33.7911H31.6V33.7292L31.5447 33.7016L31.5 33.7911ZM20.1696 28.1258L20.2143 28.0364L20.1676 28.013L20.1217 28.0381L20.1696 28.1258ZM16.4043 30.1796L16.3564 30.0918L16.187 30.1842L16.3602 30.2694L16.4043 30.1796ZM33.5 31.4615H33.4V31.6426L33.5533 31.5461L33.5 31.4615ZM31.5 31.5995L31.4559 31.6893L31.6 31.7601V31.5995H31.5ZM22.1904 27.0236L22.1425 26.9358L21.9731 27.0282L22.1463 27.1133L22.1904 27.0236ZM30.5 22.4911L30.5379 22.3985L30.4939 22.3805L30.4521 22.4033L30.5 22.4911ZM40.9545 26.7679L41.0078 26.8525L41.1723 26.749L40.9923 26.6754L40.9545 26.7679ZM33.5 33.7093L33.4463 33.6249L33.4 33.6544V33.7093H33.5ZM33.5 37.4615H33.4V37.6426L33.5533 37.5461L33.5 37.4615ZM46.7308 29.131L46.7841 29.2156L46.9486 29.112L46.7687 29.0384L46.7308 29.131ZM43.0565 27.6278L43.0944 27.5353L43.0465 27.5157L43.0029 27.5435L43.0565 27.6278ZM31.5 43.5957L31.4556 43.6853L31.6 43.7568V43.5957H31.5ZM31.5 39.7911H31.6V39.7293L31.5447 39.7016L31.5 39.7911ZM14.4305 31.2563L14.4752 31.1668L14.4284 31.1435L14.3826 31.1685L14.4305 31.2563ZM10.7 33.2911L10.6521 33.2033L10.4833 33.2953L10.6556 33.3807L10.7 33.2911ZM12.1174 24.0998L12.1653 24.1876L12.3333 24.0959L12.1622 24.0103L12.1174 24.0998ZM9.5 22.7911L9.54472 22.7016L9.4 22.6292V22.7911H9.5ZM9.5 25.5275H9.4V25.6959L9.54789 25.6153L9.5 25.5275ZM10.4556 27.2557L10.4083 27.1676L10.2369 27.2596L10.4115 27.3454L10.4556 27.2557ZM14.3 25.1911L14.3448 25.1016L14.2984 25.0785L14.2527 25.103L14.3 25.1911ZM14.2653 29.1282L14.2211 29.218L14.2676 29.2408L14.3131 29.216L14.2653 29.1282ZM18.0479 27.065L18.0957 27.1528L18.2638 27.0611L18.0926 26.9755L18.0479 27.065ZM48.6885 24.0439L48.7268 23.9515L48.6787 23.9316L48.6348 23.9595L48.6885 24.0439ZM45.0238 26.376L44.9701 26.2916L44.8083 26.3945L44.9853 26.4683L45.0238 26.376ZM52.3774 25.5757L52.4306 25.6603L52.5941 25.5574L52.4157 25.4834L52.3774 25.5757ZM48.6841 27.9011L48.6456 27.9934L48.6935 28.0134L48.7374 27.9857L48.6841 27.9011ZM53.5 23.7077L53.4615 23.8L53.6 23.8577V23.7077H53.5ZM50.9116 22.6292L50.8579 22.5448L50.6961 22.6478L50.8731 22.7215L50.9116 22.6292ZM53.5 20.982H53.6V20.7998L53.4463 20.8976L53.5 20.982ZM51.0324 28.8796L50.9787 28.7952L50.817 28.8981L50.9939 28.9719L51.0324 28.8796ZM53.5 27.3093H53.6V27.1271L53.4463 27.2249L53.5 27.3093ZM53.5 29.9077L53.4615 30.0001L53.6 30.0577V29.9077H53.5ZM9.5 28.7911L9.54472 28.7016L9.4 28.6292V28.7911H9.5ZM12.3087 30.1954L12.3566 30.2832L12.5246 30.1916L12.3534 30.106L12.3087 30.1954ZM9.5 31.7274H9.4V31.8959L9.54789 31.8152L9.5 31.7274ZM29.6 20.8184V17.0281H29.4V20.8184H29.6ZM16.3363 24.211L29.5473 17.1162L29.4527 16.94L16.2417 24.0348L16.3363 24.211ZM20.0954 25.8825L16.3331 24.0332L16.2449 24.2127L20.0072 26.0619L20.0954 25.8825ZM29.4521 20.7306L20.0034 25.8844L20.0992 26.06L29.5479 20.9061L29.4521 20.7306ZM31.4 16.9063V20.7411H31.6V16.9063H31.4ZM42.988 25.4194L31.5385 20.6488L31.4615 20.8334L42.9111 25.604L42.988 25.4194ZM46.5818 23.1066L42.8963 25.4271L43.0029 25.5964L46.6884 23.2758L46.5818 23.1066ZM31.4616 16.9987L46.5967 23.2836L46.6734 23.0989L31.5384 16.814L31.4616 16.9987ZM31.4 10.9063V14.5411H31.6V10.9063H31.4ZM31.4616 10.9987L52.339 19.6681L52.4157 19.4834L31.5384 10.814L31.4616 10.9987ZM52.3241 19.4911L48.822 21.6961L48.9285 21.8654L52.4306 19.6603L52.3241 19.4911ZM48.9137 21.6884L31.5385 14.4487L31.4615 14.6334L48.8368 21.8731L48.9137 21.6884ZM29.6 8.61837V7.29108H29.4V8.61837H29.6ZM29.6 7.29108C29.6 7.0138 29.692 6.79051 29.8457 6.63679C29.9994 6.48307 30.2227 6.39108 30.5 6.39108V6.19108C30.1773 6.19108 29.9006 6.29909 29.7043 6.49537C29.508 6.69164 29.4 6.96835 29.4 7.29108H29.6ZM30.5 6.39108C30.7773 6.39108 31.0006 6.48307 31.1543 6.63679C31.308 6.79051 31.4 7.0138 31.4 7.29108H31.6C31.6 6.96835 31.492 6.69164 31.2957 6.49537C31.0994 6.29909 30.8227 6.19108 30.5 6.19108V6.39108ZM31.4 7.29108V8.54106H31.6V7.29108H31.4ZM53.5385 17.6154L31.5385 8.44875L31.4615 8.63337L53.4615 17.8L53.5385 17.6154ZM53.4 17.2911V17.7077H53.6V17.2911H53.4ZM54.5 16.1911C54.1773 16.1911 53.9006 16.2991 53.7043 16.4954C53.508 16.6916 53.4 16.9684 53.4 17.2911H53.6C53.6 17.0138 53.692 16.7905 53.8457 16.6368C53.9994 16.4831 54.2227 16.3911 54.5 16.3911V16.1911ZM55.6 17.2911C55.6 16.9684 55.492 16.6916 55.2957 16.4954C55.0994 16.2991 54.8227 16.1911 54.5 16.1911V16.3911C54.7773 16.3911 55.0006 16.4831 55.1543 16.6368C55.308 16.7905 55.4 17.0138 55.4 17.2911H55.6ZM55.6 18.841V17.2911H55.4V18.841H55.6ZM55.5949 19.7227C55.701 19.4043 55.7032 19.0795 55.5928 18.8038L55.4072 18.8781C55.4969 19.1025 55.4991 19.3777 55.4052 19.6595L55.5949 19.7227ZM55.5949 19.7228L55.5949 19.7227L55.4052 19.6595L55.4051 19.6596L55.5949 19.7228ZM55.6 24.841V19.6912H55.4V24.841H55.6ZM55.6484 24.9873C55.635 24.9243 55.6165 24.8629 55.5928 24.8038L55.4072 24.8781C55.4264 24.9262 55.4416 24.9766 55.4527 25.0289L55.6484 24.9873ZM55.588 25.9153C55.7599 25.5972 55.7466 25.2523 55.6444 24.9737L55.4567 25.0425C55.5431 25.2783 55.5516 25.562 55.412 25.8202L55.588 25.9153ZM55.6 31.2911V25.8678H55.4V31.2911H55.6ZM55.6 39.2911V31.2911H55.4V39.2911H55.6ZM55.1707 40.1618C55.3718 39.9607 55.6 39.735 55.6 39.2911H55.4C55.4 39.6471 55.2282 39.8214 55.0293 40.0204L55.1707 40.1618ZM33.1537 54.1754L55.1537 40.1754L55.0463 40.0067L33.0463 54.0067L33.1537 54.1754ZM32.5 54.3911C32.7015 54.3911 32.9396 54.3929 33.1707 54.1618L33.0293 54.0204C32.8604 54.1893 32.6985 54.1911 32.5 54.1911V54.3911ZM32 54.0911C32 54.1584 32.0172 54.2189 32.0554 54.2681C32.093 54.3164 32.1436 54.3444 32.1934 54.3609C32.2871 54.3922 32.4057 54.3911 32.5 54.3911V54.1911C32.3943 54.1911 32.3129 54.19 32.2566 54.1712C32.2314 54.1628 32.2194 54.1532 32.2133 54.1453C32.2078 54.1383 32.2 54.1238 32.2 54.0911H32ZM8.05528 42.1805L32.0553 54.1805L32.1447 54.0016L8.14472 42.0016L8.05528 42.1805ZM7.4 41.2911C7.4 41.4178 7.46046 41.587 7.56679 41.7465C7.67496 41.9088 7.83748 42.0716 8.05528 42.1805L8.14472 42.0016C7.96252 41.9105 7.82504 41.7733 7.7332 41.6356C7.63954 41.4951 7.6 41.3644 7.6 41.2911H7.4ZM7.4 33.2911V41.2911H7.6V33.2911H7.4ZM7.4 19.2911V33.2911H7.6V19.2911H7.4ZM8.5 18.1911C8.17728 18.1911 7.90057 18.2991 7.70429 18.4954C7.50801 18.6916 7.4 18.9684 7.4 19.2911H7.6C7.6 19.0138 7.69199 18.7905 7.84571 18.6368C7.99943 18.4831 8.22273 18.3911 8.5 18.3911V18.1911ZM9.6 19.2911C9.6 18.9684 9.49199 18.6916 9.29571 18.4954C9.09943 18.2991 8.82272 18.1911 8.5 18.1911V18.3911C8.77728 18.3911 9.00057 18.4831 9.15429 18.6368C9.30801 18.7905 9.4 19.0138 9.4 19.2911H9.6ZM9.6 19.5275V19.2911H9.4V19.5275H9.6ZM29.4521 8.53059L9.45212 19.4397L9.54789 19.6153L29.5479 8.70616L29.4521 8.53059ZM10.5029 21.3438L29.5473 11.1162L29.4527 10.94L10.4083 21.1676L10.5029 21.3438ZM14.1165 22.9437L10.4997 21.1659L10.4115 21.3454L14.0283 23.1232L14.1165 22.9437ZM29.4521 14.5306L14.0245 22.9456L14.1203 23.1212L29.5479 14.7062L29.4521 14.5306ZM29.6 14.6184V11.0281H29.4V14.6184H29.6ZM32.5 46.1911C32.4408 46.1911 32.3874 46.191 32.3396 46.1866C32.2911 46.1821 32.2576 46.1738 32.2358 46.1627L32.1447 46.3407C32.1999 46.369 32.2631 46.3804 32.3211 46.3857C32.3799 46.3912 32.4429 46.3911 32.5 46.3911V46.1911ZM32.2164 46.1551C32.0094 46.0992 31.8472 45.9805 31.7414 45.8157L31.5731 45.9237C31.7071 46.1324 31.9117 46.28 32.1642 46.3482L32.2164 46.1551ZM31.702 45.7803L9.54472 34.7016L9.45528 34.8805L31.6126 45.9592L31.702 45.7803ZM9.4 34.7911V40.6911H9.6V34.7911H9.4ZM9.45559 40.7807L32.4556 52.1807L32.5444 52.0015L9.54441 40.6015L9.45559 40.7807ZM32.5538 52.1754L53.5538 38.7754L53.4462 38.6068L32.4462 52.0068L32.5538 52.1754ZM53.6 38.6911V33.3093H53.4V38.6911H53.6ZM53.4463 33.2249L33.0463 46.2067L33.1537 46.3754L53.5537 33.3936L53.4463 33.2249ZM33.1 46.1911H32.5V46.3911H33.1V46.1911ZM33.5533 43.5457L52.5533 31.5757L52.4467 31.4065L33.4467 43.3765L33.5533 43.5457ZM52.5379 31.3985L49.1466 30.0112L49.0709 30.1963L52.4621 31.5836L52.5379 31.3985ZM49.055 30.0194L33.4463 39.9522L33.5537 40.1209L49.1624 30.1881L49.055 30.0194ZM33.4 40.0366V43.4611H33.6V40.0366H33.4ZM31.6 37.5995V33.7911H31.4V37.5995H31.6ZM31.5447 33.7016L20.2143 28.0364L20.1249 28.2153L31.4553 33.8805L31.5447 33.7016ZM20.1217 28.0381L16.3564 30.0918L16.4522 30.2674L20.2175 28.2136L20.1217 28.0381ZM16.3602 30.2694L31.4559 37.6893L31.5441 37.5098L16.4484 30.0899L16.3602 30.2694ZM33.4 31.2911V31.4615H33.6V31.2911H33.4ZM32.5 30.3911C32.7773 30.3911 33.0006 30.4831 33.1543 30.6368C33.308 30.7905 33.4 31.0138 33.4 31.2911H33.6C33.6 30.9684 33.492 30.6916 33.2957 30.4954C33.0994 30.2991 32.8227 30.1911 32.5 30.1911V30.3911ZM31.6 31.2911C31.6 31.0138 31.692 30.7905 31.8457 30.6368C31.9994 30.4831 32.2227 30.3911 32.5 30.3911V30.1911C32.1773 30.1911 31.9006 30.2991 31.7043 30.4954C31.508 30.6916 31.4 30.9684 31.4 31.2911H31.6ZM31.6 31.5995V31.2911H31.4V31.5995H31.6ZM22.1463 27.1133L31.4559 31.6893L31.5441 31.5098L22.2345 26.9339L22.1463 27.1133ZM30.4521 22.4033L22.1425 26.9358L22.2383 27.1114L30.5479 22.5789L30.4521 22.4033ZM40.9923 26.6754L30.5379 22.3985L30.4621 22.5836L40.9166 26.8605L40.9923 26.6754ZM33.5533 31.5461L41.0078 26.8525L40.9012 26.6833L33.4467 31.3768L33.5533 31.5461ZM33.4 33.7093V37.4615H33.6V33.7093H33.4ZM33.5533 37.5461L46.7841 29.2156L46.6775 29.0463L33.4467 37.3768L33.5533 37.5461ZM46.7687 29.0384L43.0944 27.5353L43.0187 27.7204L46.693 29.2235L46.7687 29.0384ZM43.0029 27.5435L33.4463 33.6249L33.5537 33.7936L43.1102 27.7122L43.0029 27.5435ZM31.6 43.5957V39.7911H31.4V43.5957H31.6ZM31.5447 39.7016L14.4752 31.1668L14.3857 31.3457L31.4553 39.8805L31.5447 39.7016ZM14.3826 31.1685L10.6521 33.2033L10.7479 33.3789L14.4783 31.3441L14.3826 31.1685ZM10.6556 33.3807L31.4556 43.6853L31.5444 43.5061L10.7444 33.2015L10.6556 33.3807ZM12.1622 24.0103L9.54472 22.7016L9.45528 22.8805L12.0727 24.1892L12.1622 24.0103ZM9.54789 25.6153L12.1653 24.1876L12.0696 24.012L9.45212 25.4397L9.54789 25.6153ZM9.4 22.7911V25.5275H9.6V22.7911H9.4ZM10.5029 27.3438L14.3474 25.2792L14.2527 25.103L10.4083 27.1676L10.5029 27.3438ZM14.3094 29.0385L10.4997 27.1659L10.4115 27.3454L14.2211 29.218L14.3094 29.0385ZM18 26.9772L14.2174 29.0404L14.3131 29.216L18.0957 27.1528L18 26.9772ZM14.2553 25.2805L18.0031 27.1544L18.0926 26.9755L14.3448 25.1016L14.2553 25.2805ZM48.6348 23.9595L44.9701 26.2916L45.0775 26.4603L48.7422 24.1283L48.6348 23.9595ZM52.4157 25.4834L48.7268 23.9515L48.6501 24.1362L52.339 25.6681L52.4157 25.4834ZM48.7374 27.9857L52.4306 25.6603L52.3241 25.4911L48.6308 27.8165L48.7374 27.9857ZM44.9853 26.4683L48.6456 27.9934L48.7226 27.8088L45.0622 26.2837L44.9853 26.4683ZM53.5385 23.6154L50.95 22.5369L50.8731 22.7215L53.4615 23.8L53.5385 23.6154ZM53.4 20.982V23.7077H53.6V20.982H53.4ZM50.9652 22.7136L53.5537 21.0664L53.4463 20.8976L50.8579 22.5448L50.9652 22.7136ZM51.0861 28.9639L53.5537 27.3937L53.4463 27.2249L50.9787 28.7952L51.0861 28.9639ZM53.5385 29.8154L51.0709 28.7873L50.9939 28.9719L53.4615 30.0001L53.5385 29.8154ZM53.4 27.3093V29.9077H53.6V27.3093H53.4ZM9.45528 28.8805L12.264 30.2849L12.3534 30.106L9.54472 28.7016L9.45528 28.8805ZM9.6 31.7274V28.7911H9.4V31.7274H9.6ZM12.2608 30.1076L9.45212 31.6397L9.54789 31.8152L12.3566 30.2832L12.2608 30.1076Z" fill="white"/>
</svg>
