<svg width="75" height="75" viewBox="0 0 75 75" fill="none" xmlns="http://www.w3.org/2000/svg">
<path d="M21.875 46.875H15.625C12.1732 46.875 9.375 49.6732 9.375 53.125V59.375C9.375 62.8268 12.1732 65.625 15.625 65.625H21.875C25.3268 65.625 28.125 62.8268 28.125 59.375V53.125C28.125 49.6732 25.3268 46.875 21.875 46.875Z" stroke="#171717" stroke-width="5" stroke-linecap="round" stroke-linejoin="round"/>
<path d="M59.375 46.875H53.125C49.6732 46.875 46.875 49.6732 46.875 53.125V59.375C46.875 62.8268 49.6732 65.625 53.125 65.625H59.375C62.8268 65.625 65.625 62.8268 65.625 59.375V53.125C65.625 49.6732 62.8268 46.875 59.375 46.875Z" stroke="#171717" stroke-width="5" stroke-linecap="round" stroke-linejoin="round"/>
<path d="M40.625 9.375H34.375C30.9232 9.375 28.125 12.1732 28.125 15.625V21.875C28.125 25.3268 30.9232 28.125 34.375 28.125H40.625C44.0768 28.125 46.875 25.3268 46.875 21.875V15.625C46.875 12.1732 44.0768 9.375 40.625 9.375Z" stroke="#171717" stroke-width="5" stroke-linecap="round" stroke-linejoin="round"/>
<path d="M18.75 46.875V43.75C18.75 42.0924 19.4085 40.5027 20.5806 39.3306C21.7527 38.1585 23.3424 37.5 25 37.5H50C51.6576 37.5 53.2473 38.1585 54.4194 39.3306C55.5915 40.5027 56.25 42.0924 56.25 43.75V46.875" stroke="#171717" stroke-width="5" stroke-linecap="round" stroke-linejoin="round"/>
<path d="M37.5 28.125V37.5" stroke="#171717" stroke-width="5" stroke-linecap="round" stroke-linejoin="round"/>
</svg>
