<svg width="171" height="30" viewBox="0 0 171 30" fill="none" xmlns="http://www.w3.org/2000/svg">
<path d="M56.8404 28.5384C52.9417 28.5384 49.8907 25.1012 49.8907 18.2236C49.8907 11.346 52.4858 8.01094 56.3263 8.01094C58.1104 8.01094 59.0958 8.83464 59.5702 10.2498C60.1914 12.1016 60.0598 14.5727 62.5814 14.5727C63.8912 14.5727 64.7633 13.4796 64.7633 12.0644C64.7633 9.68931 61.1553 6.70727 56.1213 6.70727C50.0223 6.70727 45.0005 10.6276 45.0005 18.781C45.0005 26.9344 51.4973 29.9969 56.1733 29.9969C60.8493 29.9969 63.8575 27.8602 65.3907 24.3704L64.0503 23.9523C62.8477 26.4884 60.1883 28.5384 56.8435 28.5384H56.8404ZM37.812 8.686C35.8902 7.36685 33.7113 6.70727 31.2723 6.70727C27.8051 6.70727 24.9561 7.90566 22.7252 10.3024C20.8033 12.4205 19.8424 15.0248 19.8424 18.1183C19.8424 22.3576 21.3511 25.5873 24.3746 27.8076C26.3638 29.2661 28.5977 29.9969 31.0673 29.9969C34.4641 29.9969 37.2642 28.783 39.4584 26.3491C41.4476 24.1598 42.4452 21.4688 42.4452 18.2731C42.4452 14.037 40.8998 10.8412 37.812 8.686ZM31.2203 28.6932C26.9299 28.6251 24.7663 25.1693 24.7327 18.3258C24.7663 11.4822 26.8962 8.04501 31.1163 8.01094C35.3394 8.08216 37.4662 11.4482 37.4999 18.1183C37.4662 25.1352 35.37 28.6592 31.2173 28.6932H31.2203ZM140.32 6.70417C134.414 6.70417 128.893 10.6245 128.893 18.781C128.893 26.9374 135.757 29.9938 140.372 29.9938C145.89 29.9938 148.378 27.1883 149.589 24.3673L148.249 23.9492C147.046 26.4853 144.708 28.5353 141.042 28.5353C137.376 28.5353 133.958 24.5469 133.817 18.9946H150.284V17.948C150.284 12.2471 146.832 6.70417 140.32 6.70417ZM145.369 17.5423L133.79 17.5485V17.2079C133.79 11.315 136.568 8.02023 140.155 8.02023C143.741 8.02023 145.369 11.6742 145.369 17.2079V17.5423ZM10.7169 16.5855C7.88924 15.4088 3.35094 14.0246 3.35094 11.2964C3.35094 8.86561 6.24284 8.01094 8.97255 8.01094C11.843 8.01094 15.2338 9.68311 15.2338 12.7673V12.9098H16.5068V6.39761H15.2154L15.0134 8.16887C13.3976 7.19653 10.9495 6.71036 8.61145 6.71036C3.84057 6.71036 0 8.66742 0 12.6466C0 16.6257 3.27749 18.3227 6.61925 19.8028C9.961 21.283 14.5391 22.5619 14.5391 24.9277C14.5391 27.5134 12.0787 28.6932 9.0919 28.6932C4.61481 28.6932 1.3924 26.2779 1.3924 22.2863V21.8683H0V29.9938H1.29141L1.49339 28.2318C3.36012 29.3745 6.33771 29.9938 8.8685 29.9938C12.7733 29.9938 17.9451 28.6932 17.9451 23.6891C17.9451 18.9915 13.5476 17.7591 10.7199 16.5824L10.7169 16.5855ZM108.433 28.3309C107.224 28.3309 106.306 27.2812 106.306 25.0268V14.681C106.297 9.3332 102.548 6.71036 97.1649 6.71036C92.1278 6.71036 88.2138 9.55615 88.2138 12.1821C88.2138 13.7706 89.2665 14.5758 90.3988 14.5758C92.9173 14.5758 92.7857 12.1047 93.407 10.2529C93.8844 8.83464 95.1727 8.01094 96.9568 8.01094C99.7906 8.01094 101.914 9.85033 101.878 13.43V16.0931C93.3305 16.1272 87.565 19.2362 87.565 24.0483V24.6305C87.565 28.0058 90.0927 29.9969 94.1353 29.9969C97.9667 29.9969 100.813 27.6806 101.93 25.256C102.373 28.3836 104.632 29.9969 107.104 29.9969C109.807 29.9969 111.101 28.6034 111.924 27.7147L111.26 26.8662C110.651 27.5351 109.498 28.3309 108.433 28.3309ZM101.878 22.2089C101.293 24.6057 99.1785 27.8602 96.2132 27.8602C94.0496 27.8602 92.1492 26.6371 92.1492 23.8997V23.1658C92.1492 20.8402 93.7252 18.6974 96.2652 18.0718C97.6025 17.7591 99.4723 17.5857 101.878 17.5516V22.2089ZM123.908 28.3309C121.885 28.3309 119.771 27.018 119.771 23.0171V8.4135H127.547V7.10983H119.771V0H118.482C118.482 3.92651 115.336 7.10983 111.456 7.10983H109.95V8.4135H115.34C115.34 10.7112 115.33 22.1594 115.34 22.1408C115.34 27.1914 118.287 30 122.081 30C125.637 30 127.397 28.2969 128.22 27.4081L127.556 26.5597C126.947 27.2285 125.671 28.334 123.905 28.334L123.908 28.3309ZM82.3473 6.97048C77.6805 6.97048 75.1222 10.6616 74.4244 12.3183L74.2592 7.28633H66.1374V8.89657H70.1004V27.8664H66.1374V29.4798H80.1348V27.8664H74.5285V17.8644C74.5285 13.3495 78.213 9.26507 79.6176 9.26507C81.2181 9.26507 80.8968 12.3896 83.4796 12.3896C84.6119 12.3896 85.7962 11.3584 85.7962 9.99277C85.7962 8.62717 84.7006 6.97358 82.3473 6.97358V6.97048ZM163.468 16.5855C160.64 15.4088 156.102 14.0246 156.102 11.2964C156.102 8.86561 158.993 8.01094 161.723 8.01094C164.594 8.01094 167.984 9.68311 167.984 12.7673V12.9098H169.257V6.39761H167.966L167.764 8.16887C166.148 7.19653 163.7 6.71036 161.362 6.71036C156.588 6.71036 152.748 8.66742 152.748 12.6466C152.748 16.6257 156.025 18.3227 159.367 19.8028C162.709 21.283 167.287 22.5619 167.287 24.9277C167.287 27.5134 164.826 28.6932 161.839 28.6932C157.362 28.6932 154.14 26.2779 154.14 22.2863V21.8683H152.745V29.9938H154.036L154.238 28.2318C156.105 29.3745 159.082 29.9938 161.613 29.9938C165.518 29.9938 170.69 28.6932 170.69 23.6891C170.69 18.9915 166.292 17.7591 163.464 16.5824L163.468 16.5855Z" fill="white"/>
</svg>
