<svg width="24" height="25" viewBox="0 0 24 25" fill="none" xmlns="http://www.w3.org/2000/svg">
<path d="M12 0.205322C5.37253 0.205322 0 5.57786 0 12.2053C0 18.8328 5.37253 24.2053 12 24.2053C18.6275 24.2053 24 18.8328 24 12.2053C24 5.57786 18.6275 0.205322 12 0.205322ZM18.6667 7.13679L17.6021 8.15732C17.5104 8.22719 17.4648 8.34212 17.4837 8.45599V15.9547C17.4648 16.0685 17.5101 16.1835 17.6021 16.2533L18.6416 17.2739V17.4979H13.4131V17.2739L14.4899 16.2285C14.5957 16.1227 14.5957 16.0917 14.5957 15.9299V9.86852L11.6016 17.4731H11.1971L7.7112 9.86852V14.9653C7.68213 15.1797 7.75333 15.3952 7.90427 15.5504L9.3048 17.2493V17.4733H5.33333V17.2493L6.73387 15.5504C6.88373 15.3952 6.95067 15.1781 6.9144 14.9653V9.07199C6.93093 8.90826 6.86853 8.74666 6.7464 8.63652L5.50133 7.13679V6.91279H9.36693L12.3547 13.4656L14.9816 6.91279H18.6667V7.13679Z" fill="white"/>
</svg>
