<svg width="75" height="75" viewBox="0 0 75 75" fill="none" xmlns="http://www.w3.org/2000/svg">
<path d="M57.5 17.5L55.3125 19.6875M9.375 37.5H12.5H9.375ZM37.5 9.375V12.5V9.375ZM62.5 37.5H65.625H62.5ZM17.5 17.5L19.6875 19.6875L17.5 17.5Z" stroke="#171717" stroke-width="5" stroke-linecap="round" stroke-linejoin="round"/>
<path d="M28.125 50C25.5015 48.0324 23.5635 45.2891 22.5857 42.1589C21.6079 39.0286 21.6398 35.6701 22.6768 32.5589C23.7139 29.4478 25.7035 26.7418 28.3639 24.8243C31.0243 22.9068 34.2206 21.875 37.5 21.875C40.7794 21.875 43.9757 22.9068 46.6361 24.8243C49.2965 26.7418 51.2861 29.4478 52.3232 32.5589C53.3602 35.6701 53.3921 39.0286 52.4143 42.1589C51.4365 45.2891 49.4985 48.0324 46.875 50C45.6549 51.2078 44.7362 52.6858 44.1933 54.3144C43.6505 55.9431 43.4986 57.6767 43.75 59.375C43.75 61.0326 43.0915 62.6223 41.9194 63.7944C40.7473 64.9665 39.1576 65.625 37.5 65.625C35.8424 65.625 34.2527 64.9665 33.0806 63.7944C31.9085 62.6223 31.25 61.0326 31.25 59.375C31.5014 57.6767 31.3495 55.9431 30.8067 54.3144C30.2638 52.6858 29.3451 51.2078 28.125 50" stroke="#171717" stroke-width="5" stroke-linecap="round" stroke-linejoin="round"/>
<path d="M30.3101 53.125H44.6851" stroke="#171717" stroke-width="5" stroke-linecap="round" stroke-linejoin="round"/>
</svg>
