<svg width="75" height="75" viewBox="0 0 75 75" fill="none" xmlns="http://www.w3.org/2000/svg">
<path d="M37.5006 9.37859C48.0411 9.37859 56.6126 17.934 56.6126 28.4522C56.6126 38.9693 48.0411 47.5258 37.5006 47.5258C26.9612 47.5258 18.3874 38.9693 18.3874 28.4522C18.3885 17.934 26.9623 9.37859 37.5006 9.37859ZM37.5006 5C24.521 5 14 15.4999 14 28.4534C14 41.4045 24.521 51.9044 37.5006 51.9044C50.4801 51.9044 61 41.4057 61 28.4534C61 15.4999 50.4813 5 37.5006 5ZM46.7154 55.6364C46.7154 56.8402 45.7343 57.8171 44.528 57.8171H30.4743C29.9033 57.804 29.3601 57.5684 28.9609 57.1608C28.5617 56.7532 28.3382 56.2058 28.3382 55.6358C28.3382 55.0658 28.5617 54.5184 28.9609 54.1108C29.3601 53.7031 29.9033 53.4676 30.4743 53.4545H44.528C44.8152 53.4544 45.0996 53.5107 45.365 53.6203C45.6304 53.7299 45.8715 53.8905 46.0746 54.0932C46.2778 54.2958 46.4389 54.5364 46.5489 54.8011C46.6588 55.0659 46.7154 55.3497 46.7154 55.6364ZM46.7154 61.4997C46.7145 62.0781 46.4836 62.6324 46.0735 63.0411C45.6634 63.4497 45.1075 63.6792 44.528 63.6792H30.4743C29.8948 63.6791 29.3392 63.4493 28.9295 63.0404C28.5197 62.6315 28.2896 62.0768 28.2896 61.4986C28.2896 60.9203 28.5197 60.3656 28.9295 59.9567C29.3392 59.5477 29.8948 59.318 30.4743 59.3179H44.528C45.7354 59.3179 46.7154 60.2935 46.7154 61.4997ZM37.3983 69.9989C38.7135 70.0266 39.9858 69.5318 40.9354 68.6234C41.8851 67.715 42.4344 66.4673 42.4624 65.1548L32.5434 64.9427C32.5293 65.5929 32.6438 66.2395 32.8802 66.8455C33.1166 67.4515 33.4704 68.0051 33.9212 68.4746C34.3721 68.9441 34.9112 69.3204 35.5078 69.582C36.1044 69.8435 36.7468 69.9852 37.3983 69.9989Z" fill="black"/>
<path d="M24.2755 23C23.8592 23.0001 23.4508 22.8915 23.0949 22.6861C22.739 22.4807 22.4492 22.1863 22.257 21.8351C22.0648 21.4838 21.9776 21.0891 22.0049 20.6939C22.0322 20.2988 22.173 19.9183 22.4119 19.594C25.4876 15.4055 30.0171 12.3827 35.204 11.0569C35.7799 10.9288 36.3855 11.0188 36.8928 11.3078C37.4002 11.5969 37.7694 12.0623 37.9224 12.6057C38.0755 13.1491 38.0003 13.7278 37.7128 14.2194C37.4253 14.711 36.9481 15.077 36.382 15.2398C32.2306 16.3014 28.6052 18.7205 26.1426 22.0722C25.9339 22.3594 25.6549 22.594 25.3296 22.7556C25.0043 22.9173 24.6425 23.0011 24.2755 23Z" fill="black"/>
</svg>
