<svg width="61" height="61" viewBox="0 0 61 61" fill="none" xmlns="http://www.w3.org/2000/svg">
<path d="M24.5252 18.8987L23.859 20.3599C23.859 20.4927 23.7257 20.4927 23.5925 20.4927L8.00196 22.8838C7.47173 22.9483 6.98109 23.1965 6.61575 23.585C6.25042 23.9734 6.0336 24.4775 6.00317 25.0091C5.98613 25.2884 6.03794 25.5676 6.15408 25.8223C6.27022 26.077 6.44716 26.2995 6.66943 26.4703C10.134 29.924 13.4653 33.5106 16.7966 36.8315L17.9959 38.1598L18.1291 38.2927V38.4255C17.1964 44.0046 16.3968 48.2553 15.4641 55.0299V55.1628C15.4487 55.4459 15.4933 55.7291 15.595 55.9939C15.6967 56.2587 15.8532 56.4992 16.0543 56.6997C16.2555 56.9002 16.4967 57.0562 16.7624 57.1576C17.028 57.259 17.3121 57.3035 17.5961 57.2881C17.9644 57.2629 18.3253 57.173 18.6621 57.0224C23.326 54.7642 27.4568 52.5061 32.5203 49.4508L32.6536 49.318H32.7869C38.2502 52.3732 45.8456 56.3583 46.9116 56.8896C47.2018 57.0389 47.5188 57.1292 47.8444 57.1553C48.4055 57.1418 48.94 56.9135 49.3369 56.5178C49.7339 56.1222 49.9629 55.5894 49.9764 55.0299C49.9764 54.7642 49.8431 54.4986 49.8431 54.2329C47.7111 45.5986 45.9788 36.9643 43.8468 28.33C43.7786 28.0525 43.6274 27.8022 43.4132 27.6124C43.199 27.4226 42.932 27.3023 42.6475 27.2673C42.2823 27.3006 41.9429 27.4691 41.6962 27.7396C41.4495 28.0101 41.3135 28.3629 41.315 28.7285V28.9942C43.3138 38.1598 45.0461 45.2001 46.9116 53.0374L47.1781 53.9672L46.5118 53.5687C36.1182 47.9896 42.5143 51.4434 33.9861 46.7941C33.9335 46.8443 33.8703 46.8823 33.8012 46.9053C33.7321 46.9282 33.6587 46.9356 33.5864 46.927C33.2332 46.8127 32.8591 46.7772 32.4907 46.8232C32.1222 46.8691 31.7684 46.9952 31.4543 47.1926C27.1903 49.5837 22.7929 52.1075 18.3956 54.2329C19.1951 48.6538 19.9946 44.1374 20.7942 38.5583C20.8474 38.1855 20.8016 37.8053 20.6613 37.4556C20.521 37.106 20.2912 36.7992 19.9946 36.5658C16.3968 32.8464 12.799 29.3927 9.20123 25.6733C15.7306 24.7435 17.7294 24.345 24.1255 23.2823C24.4163 23.2995 24.7027 23.2044 24.925 23.0166C25.458 22.7509 25.5912 22.3524 25.8577 21.9539C28.123 17.3047 30.2551 12.3898 32.6536 7.74054C34.9189 12.6555 36.5179 15.7107 39.5827 22.3524C39.6895 22.5561 39.8407 22.7334 40.0251 22.8713C40.2096 23.0092 40.4227 23.1043 40.6487 23.1494C45.7123 23.9465 50.3761 24.6106 54.9067 25.2748L56.106 25.5405L55.3065 26.4703C53.1744 28.5957 53.1744 28.4629 47.3113 34.5733C47.1254 34.7582 46.9949 34.9911 46.9344 35.2458C46.8739 35.5006 46.8858 35.7671 46.9689 36.0154C47.0519 36.2638 47.2028 36.4841 47.4045 36.6518C47.6062 36.8194 47.8508 36.9276 48.1109 36.9643C48.286 36.969 48.46 36.9358 48.6211 36.867C48.7821 36.7982 48.9263 36.6955 49.0436 36.5658C52.3749 33.1121 55.3065 29.924 58.3713 26.736C58.4933 26.5507 58.6268 26.3733 58.771 26.2047C58.9179 25.9031 58.9961 25.5729 58.9999 25.2377C59.0036 24.9025 58.9329 24.5706 58.7928 24.2658C58.6527 23.9611 58.4466 23.691 58.1894 23.475C57.9323 23.2591 57.6303 23.1025 57.3053 23.0166C52.1084 22.0868 46.7783 21.5554 41.7147 20.6256C41.5815 20.6256 41.5815 20.6256 41.5815 20.4927C39.3162 15.5778 36.9177 10.5301 34.5191 5.48234C34.3561 5.11662 34.0871 4.80788 33.7466 4.59582C33.4061 4.38376 33.0098 4.27807 32.6086 4.29236C32.2074 4.30664 31.8196 4.44024 31.4952 4.67597C31.1708 4.91171 30.9245 5.2388 30.7881 5.61518C28.9225 10.1316 26.7905 14.5151 24.5252 18.8987Z" fill="white" stroke="white"/>
</svg>
