<svg width="61" height="61" viewBox="0 0 61 61" fill="none" xmlns="http://www.w3.org/2000/svg">
<path d="M30.5 19.7911C36.3 19.7911 38.5 14.1911 38.5 9.79108C38.5 5.39108 34.9 1.79108 30.5 1.79108C26.1 1.79108 22.5 5.39108 22.5 9.79108C22.5 14.1911 25.1 19.7911 30.5 19.7911ZM30.5 4.79108C33.3 4.79108 35.5 6.99108 35.5 9.79108C35.5 10.0911 35.4 16.7911 30.5 16.7911C26.7 16.7911 25.5 12.0911 25.5 9.79108C25.5 6.99108 27.7 4.79108 30.5 4.79108ZM16.5 28.2911C16.9 28.2911 17.2 28.1911 17.5 27.8911C20 25.6911 25.1 24.2911 30.5 24.2911C35.9 24.2911 41 25.6911 43.5 27.8911C44.1 28.3911 45.1 28.3911 45.6 27.7911C46.1 27.1911 46.1 26.1911 45.5 25.6911C42.5 22.9911 36.7 21.3911 30.5 21.3911C24.3 21.3911 18.5 23.0911 15.5 25.7911C14.9 26.3911 14.8 27.2911 15.4 27.8911C15.7 28.0911 16.1 28.2911 16.5 28.2911ZM50.5 29.7911H10.5C7.2 29.7911 4.5 32.4911 4.5 35.7911V38.7911C4.5 42.0911 7.2 44.7911 10.5 44.7911H13.5V49.7911C13.5 54.1911 17.4 57.7911 22.3 57.7911H38.8C43.6 57.7911 47.6 54.1911 47.6 49.7911V44.7911H50.6C53.9 44.7911 56.6 42.0911 56.6 38.7911V35.7911C56.5 32.4911 53.8 29.7911 50.5 29.7911ZM44.5 49.7911C44.5 52.5911 41.9 54.7911 38.7 54.7911H22.3C19.1 54.7911 16.5 52.5911 16.5 49.7911V44.7911H44.5V49.7911ZM53.5 38.7911C53.5 40.4911 52.2 41.7911 50.5 41.7911H10.5C8.8 41.7911 7.5 40.4911 7.5 38.7911V35.7911C7.5 34.0911 8.8 32.7911 10.5 32.7911H50.5C52.2 32.7911 53.5 34.0911 53.5 35.7911V38.7911Z" fill="white" stroke="white" stroke-width="0.5"/>
</svg>
