<svg width="20" height="36" viewBox="0 0 20 36" fill="none" xmlns="http://www.w3.org/2000/svg">
<path d="M4.21905 23.1573C4.21905 24.3216 3.27481 25.2678 2.11053 25.2678C0.946238 25.2678 0 24.3236 0 23.1573C0 21.991 0.944238 21.0488 2.11053 21.0488C3.27682 21.0488 4.21905 21.993 4.21905 23.1573Z" fill="black"/>
<path d="M4.21905 28.3125C4.21905 29.4768 3.27481 30.4211 2.11053 30.4211C0.946238 30.4211 0 29.4768 0 28.3125C0 27.1483 0.944238 26.202 2.11053 26.202C3.27682 26.202 4.21905 27.1463 4.21905 28.3125Z" fill="black"/>
<path d="M9.37628 28.7827C9.37628 29.9469 8.43204 30.8932 7.26575 30.8932C6.09946 30.8932 5.15723 29.9489 5.15723 28.7827C5.15723 27.6164 6.10146 26.6741 7.26575 26.6741C8.43004 26.6741 9.37628 27.6184 9.37628 28.7827Z" fill="black"/>
<path d="M4.21905 33.4699C4.21905 34.6341 3.27481 35.5804 2.11053 35.5804C0.946238 35.5804 0 34.6361 0 33.4699C0 32.3036 0.944238 31.3613 2.11053 31.3613C3.27682 31.3613 4.21905 32.3056 4.21905 33.4699Z" fill="black"/>
<path d="M4.21905 2.5302C4.21905 3.69449 3.27481 4.63872 2.11053 4.63872C0.946238 4.63872 0 3.69449 0 2.5302C0 1.36591 0.944238 0.419678 2.11053 0.419678C3.27682 0.419678 4.21905 1.36391 4.21905 2.5302Z" fill="black"/>
<path d="M4.21905 18C4.21905 19.1643 3.27481 20.1105 2.11053 20.1105C0.946238 20.1105 0 19.1663 0 18C0 16.8337 0.944238 15.8915 2.11053 15.8915C3.27682 15.8915 4.21905 16.8357 4.21905 18Z" fill="black"/>
<path d="M9.37628 18.2341C9.37628 19.3983 8.43204 20.3446 7.26575 20.3446C6.09946 20.3446 5.15723 19.4003 5.15723 18.2341C5.15723 17.0678 6.10146 16.1235 7.26575 16.1235C8.43004 16.1235 9.37628 17.0678 9.37628 18.2341Z" fill="black"/>
<path d="M9.37628 23.5074C9.37628 24.6717 8.43204 25.6179 7.26575 25.6179C6.09946 25.6179 5.15723 24.6737 5.15723 23.5074C5.15723 22.3411 6.10146 21.3989 7.26575 21.3989C8.43004 21.3989 9.37628 22.3431 9.37628 23.5074Z" fill="black"/>
<path d="M4.21905 12.8428C4.21905 14.007 3.27481 14.9533 2.11053 14.9533C0.946238 14.9533 0 14.009 0 12.8428C0 11.6765 0.944238 10.7322 2.11053 10.7322C3.27682 10.7322 4.21905 11.6765 4.21905 12.8428Z" fill="black"/>
<path d="M9.37628 12.9608C9.37628 14.125 8.43204 15.0693 7.26575 15.0693C6.09946 15.0693 5.15723 14.125 5.15723 12.9608C5.15723 11.7965 6.10146 10.8522 7.26575 10.8522C8.43004 10.8522 9.37628 11.7965 9.37628 12.9608Z" fill="black"/>
<path d="M4.21905 7.68548C4.21905 8.84977 3.27481 9.79601 2.11053 9.79601C0.946238 9.79601 0 8.85177 0 7.68548C0 6.51919 0.944238 5.57697 2.11053 5.57697C3.27682 5.57697 4.21905 6.52119 4.21905 7.68548Z" fill="black"/>
<path d="M9.37628 7.68548C9.37628 8.84977 8.43204 9.79601 7.26575 9.79601C6.09946 9.79601 5.15723 8.85177 5.15723 7.68548C5.15723 6.51919 6.10146 5.57697 7.26575 5.57697C8.43004 5.57697 9.37628 6.52119 9.37628 7.68548Z" fill="black"/>
<path d="M14.5337 18C14.5337 19.1643 13.5895 20.1105 12.4252 20.1105C11.2609 20.1105 10.3147 19.1663 10.3147 18C10.3147 16.8337 11.2589 15.8915 12.4252 15.8915C13.5915 15.8915 14.5337 16.8357 14.5337 18Z" fill="black"/>
<path d="M14.5337 23.1573C14.5337 24.3216 13.5895 25.2678 12.4252 25.2678C11.2609 25.2678 10.3147 24.3236 10.3147 23.1573C10.3147 21.991 11.2589 21.0488 12.4252 21.0488C13.5915 21.0488 14.5337 21.993 14.5337 23.1573Z" fill="black"/>
<path d="M19.6888 18C19.6888 19.1643 18.7446 20.1105 17.5783 20.1105C16.412 20.1105 15.4678 19.1663 15.4678 18C15.4678 16.8337 16.412 15.8915 17.5783 15.8915C18.7446 15.8915 19.6888 16.8357 19.6888 18Z" fill="black"/>
<path d="M14.5337 12.8428C14.5337 14.007 13.5895 14.9533 12.4252 14.9533C11.2609 14.9533 10.3147 14.009 10.3147 12.8428C10.3147 11.6765 11.2589 10.7322 12.4252 10.7322C13.5915 10.7322 14.5337 11.6765 14.5337 12.8428Z" fill="black"/>
</svg>
