<svg width="24" height="25" viewBox="0 0 24 25" fill="none" xmlns="http://www.w3.org/2000/svg">
<g clip-path="url(#clip0_3583_1082)">
<path d="M23.5216 6.39073C23.3859 5.88015 23.1185 5.41415 22.7462 5.03939C22.3738 4.66462 21.9095 4.39423 21.3998 4.25528C19.5234 3.75073 12.0234 3.75073 12.0234 3.75073C12.0234 3.75073 4.52344 3.75073 2.64707 4.25528C2.13737 4.39423 1.6731 4.66462 1.30073 5.03939C0.928354 5.41415 0.660943 5.88015 0.525256 6.39073C0.0234376 8.27528 0.0234375 12.2053 0.0234375 12.2053C0.0234375 12.2053 0.0234376 16.1353 0.525256 18.0198C0.660943 18.5304 0.928354 18.9964 1.30073 19.3712C1.6731 19.7459 2.13737 20.0163 2.64707 20.1553C4.52344 20.6598 12.0234 20.6598 12.0234 20.6598C12.0234 20.6598 19.5234 20.6598 21.3998 20.1553C21.9095 20.0163 22.3738 19.7459 22.7462 19.3712C23.1185 18.9964 23.3859 18.5304 23.5216 18.0198C24.0234 16.1353 24.0234 12.2053 24.0234 12.2053C24.0234 12.2053 24.0234 8.27528 23.5216 6.39073Z" fill="white"/>
<path d="M9.56934 15.774V8.63672L15.8421 12.2054L9.56934 15.774Z" fill="#0D0D0D"/>
</g>
<defs>
<clipPath id="clip0_3583_1082">
<rect width="24" height="24" fill="white" transform="translate(0 0.205322)"/>
</clipPath>
</defs>
</svg>
