<svg width="61" height="61" viewBox="0 0 61 61" fill="none" xmlns="http://www.w3.org/2000/svg">
<path fill-rule="evenodd" clip-rule="evenodd" d="M7 15.3909C7.30752 13.8533 8.5376 12.6232 10.0752 12.6232L50.9753 12.3157H51.2829C52.8205 12.6232 54.0505 13.8533 54.0505 15.3909V30.4594C54.0505 31.6895 53.128 32.3045 52.2054 32.3045H51.8979C50.6678 32.3045 50.0528 31.382 50.0528 30.4594V16.621H10.9978V44.2978H14.3805C15.6106 44.2978 16.2256 45.2203 16.2256 46.1429V51.0632L24.5286 44.6053H24.8362C25.4512 44.2978 26.6813 44.2978 27.2963 45.2203C27.9114 46.1429 27.9114 47.373 26.9888 47.988L17.4557 55.3685L17.1482 55.676C16.8406 55.9835 16.2256 56.2911 15.6106 56.2911H15.303C13.7654 55.9835 12.5354 54.7535 12.5354 53.2159V48.2955H9.76768C8.23008 47.988 7 46.7579 7 45.2203V15.3909ZM28.5264 20.6188H20.8384H20.5309C19.6083 20.6188 18.9933 21.5413 18.9933 22.4639V23.0789C18.9933 24.0015 19.9158 24.6165 20.8384 24.6165H28.8339C29.7565 24.6165 30.3715 23.694 30.3715 22.7714V22.1564C30.3715 21.2338 29.4489 20.6188 28.5264 20.6188ZM32.5241 28.3068H20.8384H20.5309C19.6083 28.3068 18.9933 29.2293 18.9933 30.1519V30.7669C18.9933 31.6895 19.9158 32.3045 20.8384 32.3045H32.8317C33.7542 32.3045 34.3693 31.382 34.3693 30.4594V29.8444C34.3693 28.9218 33.4467 28.3068 32.5241 28.3068ZM33.4467 36.3023H51.2829C52.8205 36.3023 54.0505 37.5324 54.0505 39.3775V49.2181C54.0505 51.0632 52.5129 52.2933 50.9753 52.2933H50.0528V54.7535C49.7453 55.9835 48.5152 56.2911 47.5926 55.9835H47.2851L39.9046 52.2933H33.4467C31.9091 52.2933 30.3715 51.0632 30.3715 49.5256V39.3775C30.3715 37.5324 31.9091 36.3023 33.4467 36.3023ZM50.0528 47.988V40.3H34.3693V47.988H41.1347L46.055 50.4482V49.8331C46.055 48.9106 46.9776 47.988 47.9001 47.988H50.0528Z" fill="white"/>
</svg>
