<svg width="61" height="61" viewBox="0 0 61 61" fill="none" xmlns="http://www.w3.org/2000/svg">
<path fill-rule="evenodd" clip-rule="evenodd" d="M21.3925 38.6409H9.90234C7.75048 38.6409 6 36.8904 6 34.7386V28.487C6 26.3352 7.75048 24.5847 9.90234 24.5847H21.3925C23.5444 24.5847 25.2948 26.3352 25.2948 28.487V29.7511C27.5311 29.1345 29.1784 27.0823 29.1784 24.6527V20.8724C29.1784 18.589 30.0614 16.436 31.6647 14.8104C32.9502 13.507 34.5812 12.662 36.3543 12.3618C36.966 9.10573 39.8305 6.63504 43.2618 6.63504H48.5009C52.376 6.63504 55.529 9.78757 55.529 13.6632C55.5285 17.5376 52.376 20.6907 48.5009 20.6907H43.2618C40.109 20.6907 37.4341 18.6038 36.5465 15.7386C34.2434 16.3108 32.5232 18.4059 32.5232 20.8719V24.6521C32.5232 26.643 31.846 28.4785 30.7099 29.9404H36.4347C37.187 26.8699 39.9624 24.5847 43.2618 24.5847H48.5009C52.376 24.5847 55.529 27.7372 55.529 31.6128C55.5285 35.4878 52.376 38.6409 48.5009 38.6409H43.2618C39.9628 38.6409 37.187 36.356 36.4347 33.2852H30.7093C31.8457 34.7472 32.5231 36.5827 32.5231 38.5734V42.3531C32.5231 44.8093 34.2293 46.8976 36.5189 47.4795C37.3774 44.5674 40.0751 42.4362 43.2617 42.4362H48.5009C52.3759 42.4362 55.529 45.5887 55.529 49.4643C55.529 53.3399 52.3759 56.4924 48.5009 56.4924H43.2617C39.8667 56.4924 37.0259 54.0726 36.3742 50.8667C34.5934 50.5699 32.955 49.7234 31.6646 48.4151C30.0613 46.7895 29.1783 44.6365 29.1783 42.3531V38.5734C29.1783 36.1438 27.5311 34.0916 25.2948 33.475V34.738C25.2948 36.8899 23.5444 38.6409 21.3925 38.6409ZM39.5787 31.6498C39.5986 33.6637 41.2432 35.2961 43.2618 35.2961H48.5009C50.5318 35.2961 52.1842 33.6437 52.1842 31.6128C52.1842 29.5819 50.5318 27.9296 48.5009 27.9296H43.2618C41.2435 27.9296 39.599 29.5615 39.5787 31.5751C39.579 31.5876 39.5791 31.6002 39.5791 31.6128C39.5791 31.6252 39.579 31.6375 39.5787 31.6498ZM9.90234 27.9296C9.59517 27.9296 9.34486 28.1799 9.34486 28.487V34.738C9.34486 35.0452 9.59517 35.2955 9.90234 35.2955H21.3925C21.6997 35.2955 21.95 35.0452 21.95 34.738V28.487C21.95 28.1799 21.6997 27.9296 21.3925 27.9296H9.90234ZM43.2618 9.9799C41.2309 9.9799 39.5785 11.6323 39.5785 13.6632C39.5785 15.694 41.2309 17.3464 43.2618 17.3464H48.5009C50.5318 17.3464 52.1842 15.694 52.1842 13.6632C52.1842 11.6323 50.5318 9.9799 48.5009 9.9799H43.2618ZM43.2617 45.7816C41.2308 45.7816 39.5785 47.434 39.5785 49.4649C39.5785 51.4958 41.2308 53.1481 43.2617 53.1481H48.5009C50.5318 53.1481 52.1841 51.4958 52.1841 49.4649C52.1841 47.434 50.5318 45.7816 48.5009 45.7816H43.2617Z" fill="white"/>
</svg>
