<svg width="57" height="58" viewBox="0 0 57 58" fill="none" xmlns="http://www.w3.org/2000/svg">
<path d="M28.8885 56.7089C27.204 56.7089 25.2948 56.0522 23.7816 54.9518C23.6847 54.8792 23.3691 54.6023 23.5287 54.2039L23.5461 54.1574C23.7096 53.6672 24.2256 53.3441 24.8337 53.3441C24.8973 53.3444 25.176 53.4104 25.4274 53.5364L25.6431 53.6447H25.7601C25.7651 53.6483 25.77 53.6521 25.7748 53.6561C25.9622 53.8447 26.1963 53.9803 26.4531 54.0491C27.1437 54.3917 27.8406 54.6959 28.7388 54.6959H28.8888C29.922 54.6959 31.0863 54.2708 32.5536 53.3576C32.7759 53.2481 32.9871 53.1461 33.2637 53.0447C33.7119 53.0654 34.0689 53.3693 34.2285 53.8481C34.3665 54.2621 34.2771 54.7958 33.8391 55.0148L33.7827 55.0427L33.7296 55.0781C32.106 56.1599 30.4773 56.7089 28.8885 56.7089ZM20.523 50.7389C19.6968 50.6891 19.5396 50.2751 19.4937 49.9652C19.4136 49.4219 19.7127 49.0016 20.2941 48.8408L35.7195 44.9462L36.2001 43.3142C36.9789 42.1148 37.8885 41.264 38.4927 40.6988C38.7099 40.4957 38.8812 40.3355 39.0006 40.2023C39.2466 39.9319 39.487 39.6565 39.7215 39.3761L39.8154 39.2732C40.893 38.0804 42.1095 36.7334 42.9081 35.3462C45.3765 31.508 46.0596 27.1328 44.8761 22.7066C43.6983 18.4637 41.175 15.1334 37.578 13.0727C34.9974 11.5085 31.9206 10.6799 28.6854 10.6799C21.147 10.6799 14.6466 15.0695 12.51 21.6026C10.3404 28.2359 12.3915 37.8716 19.4892 41.8721C19.8165 42.0623 20.1027 42.4715 19.9506 42.9155C19.7916 43.3775 19.3983 43.8719 18.771 43.8719C18.5595 43.8719 18.4203 43.8089 18.1716 43.6883C13.7562 41.1935 10.6164 36.5267 9.57361 30.8933C8.55001 25.0805 10.0293 19.16 13.5306 15.0584C15.435 12.9281 17.8227 11.2055 20.4309 10.082C23.0724 8.94348 25.9017 8.36628 28.8405 8.36628H28.9953C32.0787 8.36628 35.3466 9.16038 38.4459 10.6631C41.2587 12.1637 43.6941 14.4944 45.3018 17.2259V17.3618L45.4236 17.5865C48.411 23.0894 48.8259 28.7075 46.6227 33.833C45.6993 36.1358 44.0244 37.9073 42.9162 39.0797C42.7524 39.2528 42.6021 39.4115 42.4707 39.5552L42.3789 39.6554L42.3165 39.7751C42.3009 39.7946 42.2577 39.8339 42.213 39.8774C42.0882 39.9983 41.9316 40.1498 41.796 40.3568L41.7387 40.4123C38.7483 43.3121 38.6712 43.9436 38.646 44.1509C38.3673 46.4315 37.3446 46.6655 34.8738 47.2307C34.5558 47.3033 34.2171 47.3807 33.8562 47.4683L33.7455 47.495L33.6438 47.5448C33.5997 47.5631 33.4143 47.5955 33.315 47.6129C33.0894 47.6525 32.8413 47.696 32.5689 47.7818L20.9682 50.669C20.7243 50.6978 20.5956 50.7212 20.523 50.7389ZM6.09991 40.9463C5.72491 40.9463 5.51641 40.8644 5.27401 40.6223C5.03161 40.3796 4.94971 40.1711 4.94971 39.7967C4.94971 39.4211 5.03161 39.2132 5.27401 38.9705L8.14891 36.0959C8.39161 35.8532 8.60011 35.7713 8.97451 35.7713C9.34921 35.7713 9.5577 35.8532 9.8004 36.0959C10.3173 36.6128 10.3173 37.2296 9.8004 37.7471L6.89941 40.5221L6.87001 40.5611C6.67861 40.8167 6.4194 40.9463 6.09991 40.9463ZM50.8254 40.8209C50.538 40.8209 50.2188 40.7159 50.1252 40.6223L47.3742 37.8719C46.9791 37.4765 46.9887 36.8294 47.3937 36.3257C47.6718 36.0569 48.018 35.8961 48.3249 35.8961C48.612 35.8961 48.9315 36.0017 49.0257 36.0953L51.7755 38.8451C52.1766 39.2465 52.161 39.905 51.7389 40.412L51.7197 40.436C51.5151 40.7096 51.2559 40.8209 50.8254 40.8209ZM50.8752 24.2942C50.2086 24.2942 49.725 23.8106 49.725 23.1443C49.725 22.478 50.2086 21.9944 50.8752 21.9944H54.8748C55.5414 21.9944 56.025 22.478 56.025 23.1443C56.025 23.8106 55.5414 24.2942 54.8748 24.2942H50.8752ZM2.12491 24.2942C1.45861 24.2942 0.975006 23.8106 0.975006 23.1443C0.975006 22.478 1.45861 21.9944 2.12491 21.9944H6.1248C6.6945 21.9944 7.27471 22.5116 7.27471 23.0195V23.1446C7.27471 23.8109 6.7911 24.2945 6.1248 24.2945L2.12491 24.2942ZM45.5748 11.885C45.2001 11.885 44.9919 11.8031 44.7492 11.5607C44.232 11.0435 44.232 10.4261 44.7492 9.90918L47.6151 7.16868C47.8671 6.91698 48.0753 6.83508 48.45 6.83508C48.8247 6.83508 49.0329 6.91698 49.2756 7.15938C49.5183 7.40208 49.6002 7.61058 49.6002 7.98498C49.6002 8.35968 49.5183 8.56818 49.2756 8.81088L46.4487 11.5148C46.1019 11.7449 45.8664 11.885 45.5748 11.885ZM10.8249 11.8223C10.5378 11.8223 10.2183 11.717 10.1244 11.6231L7.37431 8.87298C6.97891 8.47728 6.98851 7.83078 7.39381 7.32708C7.67191 7.05738 8.01811 6.89718 8.32501 6.89718C8.6121 6.89718 8.93161 7.00248 9.02581 7.09638L11.7759 9.84648C12.1767 10.2476 12.1614 10.9064 11.739 11.4131L11.7186 11.4377L11.7006 11.4644C11.5536 11.6852 11.2182 11.8223 10.8249 11.8223ZM28.5738 6.26598C27.9075 6.26598 27.4242 5.78238 27.4242 5.11608V2.31618C27.4242 1.75098 27.9396 1.29108 28.5738 1.29108H28.6992C29.3331 1.29108 29.8488 1.75098 29.8488 2.31618V5.07558C29.7423 5.78928 29.1096 6.26598 28.5738 6.26598Z" fill="white" stroke="white"/>
</svg>
