<svg width="65" height="40" viewBox="0 0 65 40" fill="none" xmlns="http://www.w3.org/2000/svg">
<path fill-rule="evenodd" clip-rule="evenodd" d="M0.281738 6.28732C0.281738 2.97586 2.9746 0.281738 6.28606 0.281738C9.59752 0.281738 12.2916 2.97586 12.2916 6.28732C12.2916 9.59879 9.59752 12.2929 6.28606 12.2929C2.9746 12.2929 0.281738 9.59879 0.281738 6.28732ZM2.49641 6.2869C2.49641 8.37633 4.19663 10.0766 6.28606 10.0766C8.37549 10.0766 10.0757 8.37633 10.0757 6.2869C10.0757 4.19747 8.37549 2.49725 6.28606 2.49725C4.19663 2.49725 2.49641 4.19747 2.49641 6.2869ZM26.4361 6.28738C26.4361 2.97592 29.1302 0.281797 32.4417 0.281797C35.7532 0.281797 38.4473 2.97592 38.4473 6.28738C38.4473 9.59884 35.7532 12.293 32.4417 12.293C29.1302 12.293 26.4361 9.59884 26.4361 6.28738ZM28.6521 6.28696C28.6521 8.37639 30.3523 10.0766 32.4417 10.0766C34.5316 10.0766 36.2313 8.37639 36.2313 6.28696C36.2313 4.19753 34.5311 2.49731 32.4417 2.49731C30.3523 2.49731 28.6521 4.19753 28.6521 6.28696ZM58.3966 15.3278C60.4654 15.3278 62.1289 16.1028 63.2063 17.5699L63.2071 17.5694C64.1336 18.829 64.6038 20.5343 64.6038 22.638C64.6038 25.9352 63.3741 30.0179 61.3965 33.2889C59.1556 36.995 56.3068 39.1211 53.5789 39.1211C49.6433 39.1211 46.8632 35.2598 44.0717 30.8191L42.8092 28.7921C39.814 23.976 36.6838 19.1912 32.4421 19.1912C28.698 19.1912 25.8192 22.921 23.1356 27.1079L21.7415 25.1863C22.8021 23.5695 23.9157 22.0245 25.1285 20.7207C27.476 18.1999 29.8678 16.9753 32.4417 16.9753C35.0156 16.9753 37.4087 18.1999 39.7549 20.7207C41.3822 22.469 42.8281 24.6512 44.2117 26.8565C48.3813 21.0947 52.7246 15.3278 58.3966 15.3278ZM53.5781 36.9061C55.4828 36.9061 57.697 35.1249 59.5001 32.1432C61.2809 29.1977 62.387 25.5552 62.387 22.6385C62.387 19.2566 61.0435 17.5437 58.3966 17.5437C53.6784 17.5437 49.5776 23.2158 45.6121 28.7014C45.5665 28.7638 45.521 28.8266 45.4767 28.889C48.0975 33.1021 50.6119 36.9061 53.5781 36.9061ZM32.4417 37.6782C35.6085 37.6782 38.6645 34.3161 41.6348 30.378L41.6352 30.3784L42.6603 31.9429L42.9285 32.3414C39.695 36.5556 36.4215 39.8945 32.4417 39.8945C27.993 39.8945 24.4264 35.7232 20.8138 30.8199C18.0206 35.2607 15.2409 39.122 11.3053 39.122C8.57749 39.122 5.72861 36.9959 3.4878 33.2897C1.51011 30.0187 0.281756 25.936 0.281756 22.6389C0.281756 20.5364 0.750666 18.8298 1.6771 17.5699C2.7545 16.1028 4.41803 15.3278 6.4868 15.3278C12.1584 15.3278 16.5017 21.0947 20.6717 26.8565L22.0747 28.7925C22.5141 29.3942 22.9543 29.9909 23.3971 30.5745C26.3202 34.4266 29.2749 37.6782 32.4417 37.6782ZM5.38452 32.1432C7.18637 35.1253 9.40061 36.9061 11.3053 36.9061C14.2715 36.9061 16.7855 33.1021 19.4067 28.889C19.3624 28.8266 19.3169 28.7638 19.2713 28.7014L19.2708 28.7007C15.3059 23.2153 11.2065 17.5437 6.4868 17.5437C3.83948 17.5437 2.49643 19.2566 2.49643 22.6385C2.49643 25.5552 3.60376 29.1977 5.38452 32.1432ZM58.5974 0.281797C55.2859 0.281797 52.5918 2.97592 52.5918 6.28738C52.5918 9.59884 55.2859 12.293 58.5974 12.293C61.9088 12.293 64.6029 9.59884 64.6029 6.28738C64.6029 2.97592 61.9088 0.281797 58.5974 0.281797ZM58.5974 10.0766C56.5079 10.0766 54.8077 8.37639 54.8077 6.28696C54.8077 4.19753 56.5079 2.49731 58.5974 2.49731C60.6868 2.49731 62.387 4.19753 62.387 6.28696C62.387 8.37639 60.6868 10.0766 58.5974 10.0766Z" fill="black"/>
</svg>
