<svg width="61" height="61" viewBox="0 0 61 61" fill="none" xmlns="http://www.w3.org/2000/svg">
<path fill-rule="evenodd" clip-rule="evenodd" d="M16.2813 48.2636C20.6601 49.7481 29.3372 49.3453 29.3372 49.3453C29.5386 51.0715 31.4662 52.441 31.4662 52.441C30.0219 52.723 24.8778 52.8035 24.8778 52.8035C8.00696 52.4813 7 44.8687 7 44.8687V16.2423C9.24981 8.36499 25.3611 8.40528 25.3611 8.40528C42.5543 8.72754 44.1252 16.2423 44.1252 16.2423V25.2473H40.7475V22.5947C34.0786 26.3694 25.718 26.2083 25.718 26.2083C16.241 26.2083 10.3718 22.5948 10.3718 22.5948V26.7722C12.9842 30.8288 22.1446 31.5538 22.1446 31.5538H29.2164C28.9344 33.0384 28.8941 34.8854 28.8941 34.8854H22.4669C16.5229 34.8854 10.3718 31.4733 10.3718 31.4733V35.6104C12.9439 40.2309 24.2737 40.4726 24.2737 40.4726H28.9344V43.8502H24.757C15.516 43.8502 10.3718 40.392 10.3718 40.392V44.4487C11.0969 46.7388 16.2813 48.2636 16.2813 48.2636ZM40.7877 17.3701C39.8211 12.1857 25.5625 11.2535 25.5625 11.2535C9.42127 12.4465 10.3555 17.3648 10.3716 17.4495C10.3718 17.4502 10.3718 17.4506 10.3718 17.4507C12.3397 23.1184 26.5235 22.6753 26.5235 22.6753C40.0627 22.0308 40.7877 17.3701 40.7877 17.3701ZM30.1429 33.1764C30.9254 26.2428 43.4002 26.1853 43.4002 26.1853V26.1853C55.5758 26.1853 56.6 32.7564 56.6 32.7564V48.183C54.494 55.0533 43.4635 54.6332 43.4635 54.6332C30.6262 54.6332 30.1429 47.9413 30.1429 47.9413V33.1764ZM43.7628 51.3132C43.7628 51.3132 51.7148 51.1348 53.2857 47.8205V45.2254C53.2857 45.2254 48.8896 47.5155 43.2218 47.5155C43.2218 47.5155 39.4299 47.9356 33.5205 45.3462V47.878C33.5205 47.878 35.3848 51.3132 43.7628 51.3132ZM44.2461 44.0229C44.2461 44.0229 52.0198 43.6603 53.2857 40.6452H53.2914V38.1824C53.2914 38.1824 48.5271 40.4093 43.2851 40.4093C43.2851 40.4093 38.4 40.5301 33.5205 38.2975V40.9502C33.5205 40.9502 35.4482 44.0229 44.2461 44.0229ZM33.5148 33.2398C33.4572 36.4333 43.4002 37.095 43.4002 37.095C51.8356 36.8533 53.3432 33.5389 53.3432 33.5389C52.739 29.9254 43.5786 29.6837 43.5786 29.6837C33.9981 29.9887 33.5148 33.2398 33.5148 33.2398Z" fill="white"/>
</svg>
