<svg width="80" height="80" viewBox="0 0 80 80" fill="none" xmlns="http://www.w3.org/2000/svg">
<path d="M38.8238 14.1176C38.8238 13.4118 38.3532 12.9412 37.6473 12.9412C24.0002 12.9412 12.9414 24 12.9414 37.647C12.9414 38.3529 13.412 38.8235 14.1179 38.8235C14.8238 38.8235 15.2943 38.3529 15.2943 37.647C15.2943 25.4117 25.412 15.2941 37.6473 15.2941C38.3532 15.2941 38.8238 14.8235 38.8238 14.1176Z" fill="white"/>
<path d="M41.1766 23.5294C41.1766 22.8236 40.706 22.353 40.0001 22.353C30.353 22.353 22.353 30.353 22.353 40C22.353 40.7059 22.8236 41.1765 23.5295 41.1765C24.2354 41.1765 24.706 40.7059 24.706 40C24.706 31.5294 31.5295 24.7059 40.0001 24.7059C40.706 24.7059 41.1766 24.2353 41.1766 23.5294ZM49.4118 40C49.4118 34.8236 45.1766 30.5883 40.0001 30.5883C34.8236 30.5883 30.5883 34.8236 30.5883 40C30.5883 45.1765 34.8236 49.4118 40.0001 49.4118C45.1766 49.4118 49.4118 45.1765 49.4118 40ZM40.0001 44.7059C37.4119 44.7059 35.2942 42.5883 35.2942 40C35.2942 37.4118 37.4119 35.2941 40.0001 35.2941C42.5883 35.2941 44.706 37.4118 44.706 40C44.706 42.5883 42.5883 44.7059 40.0001 44.7059Z" fill="white"/>
<path d="M75.2942 8.70588C76.706 8 77.6471 6.35294 77.6471 4.70588C77.6471 2.11765 75.5295 0 72.9413 0C70.353 0 68.2354 2.11765 68.2354 4.70588C68.2354 6.35294 69.1766 8 70.5883 8.70588V18.1176C63.7648 8.70588 52.706 2.35294 40.0001 2.35294C19.2942 2.35294 2.35303 19.2941 2.35303 40C2.35303 60.7059 19.2942 77.6471 40.0001 77.6471C60.706 77.6471 77.6471 60.7059 77.6471 40C77.6471 35.0588 76.706 30.3529 74.8236 26.1176C75.5295 19.5294 75.5295 12.2353 75.2942 8.70588ZM40.0001 72.9412C21.8824 72.9412 7.05891 58.1176 7.05891 40C7.05891 21.8824 21.8824 7.05882 40.0001 7.05882C53.4119 7.05882 64.9413 15.0588 70.1177 26.8235C69.8824 30.1176 69.1766 32.9412 68.4707 34.3529C65.4119 40.2353 59.2942 48 59.2942 48V48.2353C57.8824 46.8235 55.5295 46.8235 54.1177 48.2353L45.8824 56.4706C44.4707 57.8824 44.4707 60.2353 45.8824 61.6471L49.1766 64.9412C49.8824 65.6471 50.8236 65.8824 51.7648 65.8824C52.706 65.8824 53.6471 65.6471 54.353 64.9412L62.5883 56.7059C64.0001 55.2941 64.0001 52.9412 62.5883 51.5294C62.8236 51.2941 63.0589 51.2941 63.0589 51.0588C63.2942 50.8235 69.4119 42.8235 72.706 36.4706C72.9413 37.6471 72.9413 38.8235 72.9413 40.2353C72.9413 58.1176 58.1177 72.9412 40.0001 72.9412ZM58.353 53.8824L51.7648 60.4706L50.1177 58.8235L56.706 52.2353L58.353 53.8824Z" fill="white"/>
</svg>
