<svg width="120" height="31" viewBox="0 0 120 31" fill="none" xmlns="http://www.w3.org/2000/svg">
<g clip-path="url(#clip0_3668_211)">
<path fill-rule="evenodd" clip-rule="evenodd" d="M24.6825 4.82782L24.8341 5.78936C24.9479 6.67398 25.0047 7.55859 24.9858 8.46244C24.9858 10.4432 24.7583 12.4047 24.3033 14.3278C23.6967 16.924 22.6351 19.4047 21.1754 21.6355C19.4882 24.174 17.0427 26.6547 13.4976 28.6932L13.0616 28.9432L12.6256 28.6932C9.08057 26.6932 6.63507 24.1932 4.94787 21.6355C3.46919 19.4047 2.42654 16.9432 1.81991 14.3278C1.36493 12.4047 1.13744 10.4432 1.13744 8.46244C1.13744 7.57782 1.17536 6.67398 1.2891 5.78936L1.4218 4.82782C1.44076 4.7509 1.44076 4.67398 1.4218 4.59705C1.40284 4.52013 1.38389 4.44321 1.32701 4.38551C1.2891 4.32782 1.23223 4.27013 1.17535 4.23167C1.11848 4.19321 1.04265 4.17398 0.985781 4.15475C0.909952 4.13552 0.834123 4.13552 0.758294 4.15475C0.682464 4.17398 0.606635 4.21244 0.549763 4.2509C0.492891 4.28936 0.436019 4.34705 0.398104 4.40475C0.360189 4.48167 0.341232 4.55859 0.322274 4.63552L0.170616 5.59705C0.0568723 6.53936 0 7.5009 0 8.46244C0 10.5394 0.246446 12.5971 0.72038 14.6163C1.04265 15.9817 1.47867 17.3278 2.02844 18.6163C2.5782 19.9047 3.24171 21.1355 4.01896 22.3086C5.80095 25.0009 8.37915 27.6355 12.0948 29.7124L12.7962 30.1163C12.891 30.1547 12.9858 30.174 13.0806 30.174C13.1754 30.174 13.2701 30.1547 13.3649 30.1163L14.0664 29.7124C17.763 27.6163 20.3602 24.9817 22.1422 22.3086C23.6967 19.9624 24.8152 17.3471 25.4408 14.6163C25.9147 12.5971 26.1422 10.5394 26.1422 8.46244C26.1422 7.5009 26.0853 6.53936 25.9716 5.57782L25.8199 4.61629C25.8009 4.53936 25.782 4.46244 25.7441 4.38551C25.7062 4.32782 25.6493 4.27013 25.5924 4.23167C25.5355 4.19321 25.4597 4.15475 25.3839 4.13552C25.3081 4.11629 25.2322 4.11629 25.1564 4.13552C25.0806 4.15475 25.0047 4.17398 24.9289 4.21244C24.872 4.2509 24.8152 4.30859 24.7773 4.36629C24.7393 4.42398 24.7014 4.5009 24.6825 4.57782V4.82782Z" fill="white"/>
<path fill-rule="evenodd" clip-rule="evenodd" d="M4.6071 4.17403L13.1 1.4625L21.7635 4.23173C21.8393 4.25096 21.9152 4.25096 21.991 4.25096C22.0668 4.25096 22.1426 4.23173 22.2185 4.19326C22.2943 4.1548 22.3512 4.11634 22.408 4.03942C22.4649 3.98173 22.5028 3.9048 22.5028 3.82788C22.5218 3.75096 22.5218 3.67403 22.5218 3.59711C22.5218 3.52019 22.5028 3.44327 22.4649 3.36634C22.427 3.28942 22.3891 3.23173 22.3322 3.17404C22.2753 3.11634 22.1995 3.07788 22.1237 3.07788L13.2706 0.231727C13.1569 0.193265 13.0431 0.193265 12.9294 0.231727L4.28482 3.00096C4.20899 3.02019 4.15212 3.05865 4.07629 3.09711C4.01942 3.1548 3.96255 3.2125 3.94359 3.28942C3.90568 3.36634 3.88672 3.44326 3.88672 3.52019C3.88672 3.59711 3.88672 3.67404 3.90568 3.75096C3.92463 3.82788 3.96255 3.9048 4.00046 3.9625C4.03838 4.02019 4.11421 4.07788 4.19004 4.11634C4.24691 4.1548 4.32274 4.17403 4.41752 4.17403C4.45544 4.19327 4.53127 4.19327 4.6071 4.17403Z" fill="white"/>
<path fill-rule="evenodd" clip-rule="evenodd" d="M0.416688 5.00095L12.5683 29.8471C12.6063 29.9433 12.6821 30.0202 12.7579 30.0779C12.9475 30.1933 13.175 30.1933 13.3646 30.0779C13.4593 30.0202 13.5352 29.9433 13.592 29.8471L21.0044 15.3279L21.0233 15.3086L25.7627 4.98172C25.8006 4.9048 25.8195 4.82787 25.8195 4.75095C25.8195 4.67403 25.8195 4.59711 25.7816 4.52018C25.7627 4.44326 25.7247 4.36634 25.6679 4.30864C25.63 4.25095 25.5541 4.19326 25.4973 4.1548C25.4404 4.11634 25.3646 4.0971 25.2698 4.0971C25.1939 4.0971 25.1181 4.09711 25.0423 4.11634C24.9665 4.13557 24.8906 4.17403 24.8338 4.23172C24.7769 4.28941 24.72 4.34711 24.701 4.42403L19.9617 14.7509L13.0612 28.2702L1.42143 4.42403C1.38351 4.36634 1.32664 4.28941 1.28873 4.23172C1.23186 4.17403 1.15602 4.13557 1.0802 4.11634C1.00437 4.07787 0.928537 4.07787 0.852708 4.0971C0.776879 4.0971 0.70105 4.11634 0.62522 4.1548C0.568348 4.19326 0.492519 4.25095 0.454604 4.30864C0.416689 4.36634 0.378775 4.44326 0.359817 4.52018C0.34086 4.59711 0.321903 4.67403 0.34086 4.75095C0.359818 4.84711 0.378774 4.92403 0.416688 5.00095Z" fill="white"/>
<path fill-rule="evenodd" clip-rule="evenodd" d="M6.23712 16.0779H19.7727C19.8485 16.0779 19.9243 16.0586 20.0002 16.0394C20.076 16.0202 20.1329 15.9625 20.1708 15.9048C20.2276 15.8471 20.2656 15.7894 20.2845 15.7125C20.3414 15.5586 20.3414 15.4048 20.2845 15.2509C20.2656 15.174 20.2087 15.1163 20.1708 15.0586C20.1139 15.0009 20.057 14.9625 20.0002 14.924C19.9243 14.9048 19.8485 14.8856 19.7727 14.8856H6.23712C6.16129 14.8856 6.08546 14.9048 6.00963 14.924C5.9338 14.9433 5.87693 15.0009 5.83902 15.0586C5.78214 15.1163 5.74423 15.174 5.72527 15.2509C5.6684 15.4048 5.6684 15.5586 5.72527 15.7125C5.74423 15.7894 5.78214 15.8471 5.83902 15.9048C5.89589 15.9625 5.95276 16.0009 6.00963 16.0394C6.08546 16.0586 6.16129 16.0586 6.23712 16.0779ZM43.9622 10.9048H35.166C35.0902 10.9048 35.0144 10.924 34.9385 10.9432C34.8627 10.9625 34.8058 11.0202 34.7679 11.0779C34.7111 11.1356 34.6731 11.1933 34.6542 11.2702C34.6352 11.3471 34.6163 11.424 34.6163 11.5009V18.9048C34.6163 18.9817 34.6352 19.0586 34.6542 19.1356C34.6731 19.2125 34.7111 19.2702 34.7679 19.3279C34.8248 19.3856 34.8817 19.424 34.9385 19.4625C35.0144 19.4817 35.0902 19.5009 35.166 19.5009H43.9622V20.7509H35.166C35.0523 20.7509 34.9385 20.7317 34.8248 20.7125C34.7111 20.6932 34.5973 20.6548 34.4836 20.6163C34.3698 20.5779 34.275 20.5202 34.1803 20.4625C34.0855 20.3856 34.0096 20.3086 33.9148 20.2317C33.7442 20.0586 33.6305 19.8663 33.5357 19.6548C33.4978 19.5394 33.4599 19.424 33.4409 19.3086C33.422 19.1932 33.403 19.0779 33.403 18.9625V11.5202C33.403 11.4048 33.422 11.2894 33.4409 11.174C33.4599 11.0586 33.4978 10.9432 33.5357 10.8279C33.5736 10.7125 33.6305 10.5971 33.6874 10.5009C33.7442 10.4048 33.8201 10.3086 33.9148 10.2317C33.9907 10.1548 34.0855 10.0779 34.1803 10.0009C34.275 9.94325 34.3698 9.88555 34.4836 9.84709C34.5973 9.80863 34.7111 9.77017 34.8248 9.75094C34.9385 9.73171 35.0523 9.71248 35.166 9.71248H43.9622V10.9048ZM60.4741 9.65479V10.9048H52.0002V14.5779H58.8058V15.8471H52.0002V19.5202H60.4741V20.7702H50.8248V9.65479H60.4741Z" fill="white"/>
<path d="M77.9337 11.5395V14.7895C77.9337 14.9048 77.9147 15.0202 77.8958 15.1356C77.8768 15.251 77.8389 15.3664 77.801 15.4818C77.7631 15.5972 77.7062 15.7125 77.6493 15.8087C77.5735 15.9048 77.5166 16.001 77.4218 16.0779C77.346 16.1548 77.2512 16.2318 77.1564 16.3087C77.0616 16.3664 76.9668 16.4241 76.8531 16.4625C76.7394 16.501 76.6256 16.5395 76.5119 16.5779C76.3981 16.5971 76.2844 16.6164 76.1706 16.6164H74.5593L77.8768 20.751H76.2844L72.9858 16.6164H69.1185C68.9289 16.6164 68.7394 16.5972 68.5498 16.5587V20.751H67.3555V9.67407H76.1896C76.3033 9.67407 76.4171 9.69331 76.5308 9.71254C76.6446 9.73177 76.7583 9.77023 76.8721 9.80869C76.9858 9.84715 77.0806 9.90484 77.1754 9.98177C77.365 10.1164 77.5166 10.2895 77.6493 10.4818C77.7062 10.5779 77.7631 10.6933 77.801 10.8087C77.8389 10.9241 77.8768 11.0395 77.8958 11.1548C77.9147 11.2895 77.9337 11.4241 77.9337 11.5395ZM69.0995 15.3856H76.1706C76.2465 15.3856 76.3223 15.3664 76.3981 15.3471C76.474 15.3279 76.5308 15.2895 76.5687 15.2125C76.6256 15.1548 76.6635 15.0972 76.6825 15.0202C76.7014 14.9433 76.7204 14.8664 76.7204 14.7895V11.5395C76.7204 11.3856 76.6635 11.2318 76.5687 11.1164C76.474 11.001 76.3223 10.9241 76.1706 10.9241H69.0995C69.0237 10.9241 68.9479 10.9433 68.8721 10.9625C68.7962 10.9818 68.7394 11.0395 68.7014 11.0971C68.6446 11.1548 68.6067 11.2125 68.5877 11.2895C68.5687 11.3664 68.5498 11.4433 68.5498 11.5202V14.7702C68.5498 14.9241 68.6067 15.0779 68.7394 15.1933C68.8152 15.3087 68.9668 15.3856 69.0995 15.3856Z" fill="white"/>
<path fill-rule="evenodd" clip-rule="evenodd" d="M84.2656 9.65479H94.8438V10.9048H90.1614V20.7509H88.967V10.9048H84.2656V9.65479ZM101.289 20.7702V9.67402H102.484V20.7702H101.289ZM118.389 9.65479H119.924L115.507 15.2125L119.943 20.7702H118.389L114.446 15.8471H111.033V20.7702H109.839V9.67402H111.052V14.5971H114.465L118.389 9.65479Z" fill="white"/>
</g>
<defs>
<clipPath id="clip0_3668_211">
<rect width="120" height="30" fill="white" transform="translate(0 0.174072)"/>
</clipPath>
</defs>
</svg>
