<svg xmlns="http://www.w3.org/2000/svg" width="326" height="200" viewBox="0 0 326 200" fill="none">
  <path fill-rule="evenodd" clip-rule="evenodd" d="M0.622681 30.3215C0.622681 13.6023 14.2186 0 30.9378 0C47.657 0 61.2594 13.6023 61.2594 30.3215C61.2594 47.0407 47.657 60.6431 30.9378 60.6431C14.2186 60.6431 0.622681 47.0407 0.622681 30.3215ZM11.8043 30.3194C11.8043 40.8687 20.3885 49.4529 30.9378 49.4529C41.4871 49.4529 50.0713 40.8687 50.0713 30.3194C50.0713 19.7701 41.4871 11.1859 30.9378 11.1859C20.3885 11.1859 11.8043 19.7701 11.8043 30.3194ZM132.673 30.3216C132.673 13.6024 146.276 3.30212e-05 162.995 3.30212e-05C179.714 3.30212e-05 193.316 13.6024 193.316 30.3216C193.316 47.0408 179.714 60.6431 162.995 60.6431C146.276 60.6431 132.673 47.0408 132.673 30.3216ZM143.861 30.3194C143.861 40.8687 152.445 49.453 162.995 49.453C173.546 49.453 182.128 40.8687 182.128 30.3194C182.128 19.7701 173.544 11.1859 162.995 11.1859C152.445 11.1859 143.861 19.7701 143.861 30.3194ZM294.038 75.9653C304.483 75.9653 312.882 79.8785 318.322 87.2854L318.326 87.2832C323.003 93.6426 325.377 102.252 325.377 112.874C325.377 129.521 319.169 150.134 309.184 166.649C297.87 185.361 283.487 196.095 269.714 196.095C249.844 196.095 235.807 176.6 221.713 154.179L215.339 143.945C200.216 119.629 184.413 95.4714 162.997 95.4714C144.093 95.4714 129.558 114.303 116.009 135.442L108.971 125.74C114.325 117.577 119.948 109.776 126.071 103.193C137.923 90.4661 149.999 84.2834 162.995 84.2834C175.99 84.2834 188.072 90.4661 199.918 103.193C208.134 112.02 215.435 123.038 222.42 134.173C243.472 105.082 265.401 75.9653 294.038 75.9653ZM269.71 184.912C279.327 184.912 290.506 175.919 299.61 160.864C308.601 145.993 314.185 127.603 314.185 112.876C314.185 95.8014 307.402 87.1534 294.038 87.1534C270.216 87.1534 249.512 115.791 229.49 143.487C229.26 143.802 229.031 144.12 228.807 144.435C242.039 165.706 254.734 184.912 269.71 184.912ZM162.995 188.81C178.984 188.81 194.413 171.835 209.409 151.952L209.412 151.954L214.587 159.853L215.941 161.865C199.616 183.142 183.088 200 162.995 200C140.533 200 122.526 178.94 104.287 154.183C90.1843 176.604 76.1497 196.1 56.2796 196.1C42.5069 196.1 28.1233 185.365 16.8096 166.653C6.82453 150.138 0.622686 129.525 0.622686 112.878C0.622686 102.263 2.99016 93.6469 7.66762 87.2854C13.1073 79.8785 21.5063 75.9653 31.9512 75.9653C60.5866 75.9653 82.5155 105.082 103.569 134.173L110.653 143.947C112.871 146.985 115.094 149.998 117.329 152.944C132.088 172.393 147.006 188.81 162.995 188.81ZM26.386 160.864C35.4833 175.921 46.6628 184.912 56.2796 184.912C71.2551 184.912 83.9483 165.706 97.1824 144.435C96.9588 144.12 96.7289 143.802 96.4989 143.487L96.4963 143.484C76.478 115.788 55.7804 87.1534 31.9512 87.1534C18.5852 87.1534 11.8043 95.8014 11.8043 112.876C11.8043 127.603 17.3951 145.993 26.386 160.864ZM295.052 3.30212e-05C278.332 3.30212e-05 264.73 13.6024 264.73 30.3216C264.73 47.0408 278.332 60.6431 295.052 60.6431C311.771 60.6431 325.373 47.0408 325.373 30.3216C325.373 13.6024 311.771 3.30212e-05 295.052 3.30212e-05ZM295.052 49.453C284.502 49.453 275.918 40.8687 275.918 30.3194C275.918 19.7701 284.502 11.1859 295.052 11.1859C305.601 11.1859 314.185 19.7701 314.185 30.3194C314.185 40.8687 305.601 49.453 295.052 49.453Z" fill="white"/>
</svg>